<svg width="33" height="21" viewBox="0 0 33 21" fill="none" xmlns="http://www.w3.org/2000/svg">
<path d="M0.570009 6.44136L0.692602 6.17454L0.643925 5.90772L0.423981 5.39753V5.27674L0.0129395 4.52316L0.764714 0.785922L0.788151 0.66333L4.60111 1.4151L11.3022 2.55809L17.1776 3.40722L20.9905 3.86874L25.045 4.33026L30.12 4.79178L32.0129 4.93781V5.03336L31.1872 16.858L30.9691 20.2816L30.8483 20.5484L27.1093 20.2563L21.6449 19.7245L16.716 19.1404L11.6429 18.4373L11.3995 18.6068L11.1327 20.3555L10.8893 20.1121L10.7433 19.8453L10.5738 19.3838L10.3305 19.3099L9.91761 19.8201V19.9895L9.43266 19.8453L9.18928 19.9174L8.92246 19.7714H8.4375L7.90207 19.5785L7.75784 19.6272L7.51446 19.8453H7.27108L7.00426 19.7479L6.49587 19.6506L6.25249 19.7714L6.20381 20.04L6.10646 20.0869L5.86308 19.8453L5.71705 19.5785L5.76573 19.3351L5.6197 19.0917L5.69362 18.8483L5.54759 18.3886L5.28077 18.1452L5.01395 18.2174L4.81925 17.974L4.74714 17.7072L4.86793 17.3682L4.84449 17.1267L4.77057 16.858L4.57767 16.6165L4.38297 16.1045L4.28561 15.4266V14.9164L4.04224 14.673L3.99356 14.4549L2.97497 15.0138L2.73159 15.0624L2.48821 14.7217L2.19796 14.6243L2.27007 14.3575L2.46477 14.1141L2.39086 13.8473L2.53688 13.6058L2.78026 13.5571L2.87762 13.0469L2.73159 12.8035L2.85238 12.5367L2.78026 12.2933L2.97497 12.0517L3.04708 11.7849L3.3139 11.2729L3.58072 10.5211L3.33914 10.4238L2.9984 10.4472L2.75502 10.303L2.8037 10.0596H2.56212L2.43953 9.79279L2.19796 9.57465L2.14747 9.30603L2.19796 9.18525L2.00325 8.94367L1.68776 8.43347L1.5904 8.16665L1.42094 7.92327L1.34703 7.67989L0.957616 7.46175L0.862067 7.21837L0.449221 6.73341L0.71604 6.68474L0.570009 6.44136Z" fill="#6C6051"/>
</svg>
