<svg width="64" height="64" viewBox="0 0 64 64" fill="none" xmlns="http://www.w3.org/2000/svg">
  <defs>
    <linearGradient id="skyGrad" x1="0%" y1="0%" x2="0%" y2="100%">
      <stop offset="0%" style="stop-color:#3b82f6"/>
      <stop offset="100%" style="stop-color:#1e40af"/>
    </linearGradient>
    <linearGradient id="groundGrad" x1="0%" y1="0%" x2="0%" y2="100%">
      <stop offset="0%" style="stop-color:#84cc16"/>
      <stop offset="100%" style="stop-color:#65a30d"/>
    </linearGradient>
    <filter id="shadow" x="-20%" y="-20%" width="140%" height="140%">
      <feDropShadow dx="1" dy="1" stdDeviation="1" flood-color="#000000" flood-opacity="0.3"/>
    </filter>
  </defs>

  <!-- Sky background -->
  <rect width="64" height="40" fill="url(#skyGrad)"/>
  <!-- Ground -->
  <rect y="40" width="64" height="24" fill="url(#groundGrad)"/>

  <!-- Border fence -->
  <g filter="url(#shadow)">
    <rect x="0" y="35" width="64" height="8" fill="#6b7280"/>
    <rect x="4" y="30" width="2" height="15" fill="#4b5563"/>
    <rect x="10" y="30" width="2" height="15" fill="#4b5563"/>
    <rect x="16" y="30" width="2" height="15" fill="#4b5563"/>
    <rect x="22" y="30" width="2" height="15" fill="#4b5563"/>
    <rect x="28" y="30" width="2" height="15" fill="#4b5563"/>
    <rect x="34" y="30" width="2" height="15" fill="#4b5563"/>
    <rect x="40" y="30" width="2" height="15" fill="#4b5563"/>
    <rect x="46" y="30" width="2" height="15" fill="#4b5563"/>
    <rect x="52" y="30" width="2" height="15" fill="#4b5563"/>
    <rect x="58" y="30" width="2" height="15" fill="#4b5563"/>
  </g>

  <!-- People silhouettes -->
  <g transform="translate(8, 45)">
    <!-- Person 1 -->
    <circle cx="4" cy="4" r="2" fill="#1f2937"/>
    <rect x="2" y="6" width="4" height="8" rx="1" fill="#1f2937"/>
    <rect x="1" y="8" width="2" height="6" fill="#1f2937"/>
    <rect x="5" y="8" width="2" height="6" fill="#1f2937"/>

    <!-- Person 2 -->
    <circle cx="12" cy="4" r="2" fill="#1f2937"/>
    <rect x="10" y="6" width="4" height="8" rx="1" fill="#1f2937"/>
    <rect x="9" y="8" width="2" height="6" fill="#1f2937"/>
    <rect x="13" y="8" width="2" height="6" fill="#1f2937"/>

    <!-- Child -->
    <circle cx="20" cy="6" r="1.5" fill="#1f2937"/>
    <rect x="18.5" y="7.5" width="3" height="6" rx="1" fill="#1f2937"/>
  </g>

  <!-- Suitcases -->
  <rect x="30" y="52" width="6" height="4" rx="1" fill="#8b5cf6"/>
  <rect x="38" y="52" width="6" height="4" rx="1" fill="#f59e0b"/>

  <!-- Arrow showing movement -->
  <path d="M48 20 L56 20 L54 18 M56 20 L54 22" stroke="#fbbf24" stroke-width="2" fill="none"/>

  <!-- Clouds -->
  <circle cx="15" cy="12" r="3" fill="white" opacity="0.8"/>
  <circle cx="18" cy="12" r="4" fill="white" opacity="0.8"/>
  <circle cx="21" cy="12" r="3" fill="white" opacity="0.8"/>

  <circle cx="45" cy="8" r="2.5" fill="white" opacity="0.6"/>
  <circle cx="47" cy="8" r="3" fill="white" opacity="0.6"/>
  <circle cx="49" cy="8" r="2.5" fill="white" opacity="0.6"/>
</svg>
