<svg width="64" height="64" viewBox="0 0 64 64" fill="none" xmlns="http://www.w3.org/2000/svg">
  <defs>
    <linearGradient id="womenBg" x1="0%" y1="0%" x2="100%" y2="100%">
      <stop offset="0%" style="stop-color:#be185d"/>
      <stop offset="100%" style="stop-color:#9d174d"/>
    </linearGradient>
    <linearGradient id="skinTone" x1="0%" y1="0%" x2="0%" y2="100%">
      <stop offset="0%" style="stop-color:#fbbf24"/>
      <stop offset="100%" style="stop-color:#f59e0b"/>
    </linearGradient>
    <filter id="glow">
      <feGaussianBlur stdDeviation="1" result="coloredBlur"/>
      <feMerge>
        <feMergeNode in="coloredBlur"/>
        <feMergeNode in="SourceGraphic"/>
      </feMerge>
    </filter>
  </defs>

  <!-- Background -->
  <rect width="64" height="64" rx="8" fill="url(#womenBg)"/>

  <!-- Raised fist (symbol of empowerment) -->
  <g transform="translate(20, 15)">
    <!-- Arm -->
    <rect x="8" y="20" width="8" height="15" rx="4" fill="url(#skinTone)"/>

    <!-- Fist -->
    <ellipse cx="12" cy="18" rx="6" ry="8" fill="url(#skinTone)"/>

    <!-- Thumb -->
    <ellipse cx="6" cy="20" rx="2" ry="4" fill="url(#skinTone)"/>

    <!-- Knuckle details -->
    <rect x="9" y="14" width="6" height="1.5" rx="0.5" fill="#f59e0b"/>
    <rect x="9" y="16" width="6" height="1.5" rx="0.5" fill="#f59e0b"/>
    <rect x="9" y="18" width="6" height="1.5" rx="0.5" fill="#f59e0b"/>
  </g>

  <!-- Female symbol (♀) -->
  <g transform="translate(42, 8)">
    <circle cx="6" cy="8" r="5" fill="none" stroke="#fbbf24" stroke-width="2" filter="url(#glow)"/>
    <line x1="6" y1="13" x2="6" y2="20" stroke="#fbbf24" stroke-width="2" filter="url(#glow)"/>
    <line x1="3" y1="17" x2="9" y2="17" stroke="#fbbf24" stroke-width="2" filter="url(#glow)"/>
  </g>

  <!-- Scales of justice (equality) -->
  <g transform="translate(8, 40)">
    <!-- Base -->
    <rect x="11" y="18" width="2" height="4" fill="#fbbf24"/>
    <rect x="8" y="22" width="8" height="2" fill="#fbbf24"/>

    <!-- Pole -->
    <rect x="11.5" y="2" width="1" height="18" fill="#fbbf24"/>

    <!-- Balance beam -->
    <rect x="6" y="6" width="12" height="1" fill="#fbbf24"/>

    <!-- Left scale -->
    <rect x="4" y="8" width="4" height="1" fill="#fbbf24"/>
    <line x1="6" y1="6" x2="6" y2="8" stroke="#fbbf24" stroke-width="1"/>

    <!-- Right scale -->
    <rect x="16" y="8" width="4" height="1" fill="#fbbf24"/>
    <line x1="18" y1="6" x2="18" y2="8" stroke="#fbbf24" stroke-width="1"/>
  </g>

  <!-- Hearts (representing care/health) -->
  <g transform="translate(45, 35)">
    <path d="M8,6 C8,4 6,2 4,2 C2,2 0,4 0,6 C0,8 4,12 4,12 C4,12 8,8 8,6 Z" fill="#f472b6" opacity="0.8"/>
  </g>

  <g transform="translate(50, 45)">
    <path d="M6,4 C6,3 5,2 4,2 C3,2 2,3 2,4 C2,5 4,8 4,8 C4,8 6,5 6,4 Z" fill="#f472b6" opacity="0.6"/>
  </g>

  <!-- Equality symbol -->
  <g transform="translate(35, 50)">
    <rect x="0" y="2" width="12" height="2" fill="#fbbf24" opacity="0.8"/>
    <rect x="0" y="6" width="12" height="2" fill="#fbbf24" opacity="0.8"/>
  </g>
</svg>
