<svg width="32" height="32" viewBox="0 0 32 32" fill="none" xmlns="http://www.w3.org/2000/svg">
<path d="M8.39007 30.7463H7.14135L8.19494 30.6341L8.39007 30.7463ZM21.8536 2.32032L23.9219 14.7754L24.4682 16.4584L25.0925 17.6554L25.0536 18.2912L25.5999 18.7401L24.8585 19.3759L24.2731 21.3582L24.8585 23.1161L24.5073 25.2854L25.0145 25.8839L25.0536 26.445L11.1219 26.3701L10.9267 27.1182L12.1364 28.3152L11.9413 29.0258L12.1364 29.6616L11.317 30.3722L11.0437 30.2975V30.4471H11.2389L10.6925 30.7463L8.62426 30.9333L10.1072 30.6341L9.75597 29.8861H9.28777L9.17058 29.3999L9.28777 28.7639L8.78032 27.9037L8.07794 30.3722L7.14135 29.8861L6.55597 29.9235L6.3999 20.872L8.89751 2.76915L8.42913 2.1333L21.8536 2.32032Z" fill="#6C6051"/>
</svg>
