<svg width="32" height="32" viewBox="0 0 32 32" fill="none" xmlns="http://www.w3.org/2000/svg">
<path d="M3.19995 23.0801V23.0449V23.0273V23.0801ZM3.25525 23.0449V23.0273L3.31053 22.9922L3.36582 23.0273L3.25525 23.0449ZM3.51326 22.7463V22.7286V22.6936L3.55013 22.7286L3.51326 22.7463ZM4.82184 23.0801L4.87713 23.2207H4.76654V23.0801H4.87713H4.82184ZM4.95085 23.1328H4.98771V23.2207H4.93242L4.95085 23.1328ZM5.02458 23.1328V23.2207L4.95085 23.1328H5.02458ZM4.02933 22.834L4.15834 22.8692L3.91874 23.0273L3.84502 22.7463L4.02933 22.834ZM4.3795 23.0449L4.02933 23.0273V22.9922L4.3795 22.9044V23.0449ZM5.17202 23.1328H5.22731H5.11672L5.17202 23.0801V23.1328ZM4.69283 22.9922V23.2207H4.45323L4.6191 22.9219L4.69283 22.9922ZM5.07987 23.0449L5.11672 23.0801H5.07987V23.0449ZM5.07987 23.0273L5.02458 23.0449L4.98771 22.9922L5.02458 22.9219L5.07987 23.0273ZM6.33313 23.3084L6.44373 23.4138L6.64646 23.4665L6.33313 23.4138L6.1304 23.2734L6.33313 23.3084ZM7.01507 23.3611H6.95977H6.88606L7.01507 23.3084V23.3611ZM6.18569 23.0273L6.03826 23.2734H5.72493L5.39318 23.1328L6.18569 23.0273ZM7.69699 23.4138L7.60485 23.3611L7.66014 23.3436L7.69699 23.3611V23.4138ZM8.01035 23.3611H7.88131L8.01035 23.3084V23.3611ZM8.30523 23.3436H8.24987L8.30523 23.2734L8.39739 23.3084L8.30523 23.3436ZM8.52635 23.2207V23.3436L8.39739 23.2734L8.52635 23.2207ZM8.54475 23.2207V23.1328H8.58171L8.54475 23.2207ZM9.57691 22.8692L9.63227 23.0449L9.04235 23.3436L8.85819 23.3611L9.57691 22.8692ZM10.5907 22.834L10.5537 22.9044L10.4985 22.9219V22.8692L10.5907 22.834ZM10.5907 22.7463V22.7286L10.6459 22.7463H10.5907ZM10.0193 23.0449L10.2772 22.9044L10.1483 22.6936L10.5537 22.7286L10.1851 23.0801H9.63227L10.0193 23.0449ZM11.0883 22.7286L11.0329 22.7463L10.9592 22.7286H11.0145H11.0883ZM11.2726 22.7286L11.2172 22.7463L11.0883 22.7286L11.1435 22.6936L11.2726 22.7286ZM10.7934 22.6057L10.8856 22.6936H10.7196V22.5705L10.7934 22.6057ZM10.9592 22.5705L11.0145 22.6584L10.9224 22.6936L10.8856 22.5705H10.9592ZM12.5995 22.6936H12.5259V22.6584L12.5995 22.6936ZM12.4521 22.6057V22.6936L12.3968 22.5705L12.4521 22.6057ZM14.0924 22.4827H14.0555V22.4476H14.0924V22.4827ZM27.6572 20.8313H27.731L27.7864 20.9542L27.6572 20.9015V20.8313ZM14.2214 22.3246L14.2768 22.3948L14.2214 22.43V22.3246ZM12.7654 22.2544L12.6548 22.2192L12.7654 22.1665V22.2192V22.2544ZM28.3761 20.5502V20.6379H28.2654L28.3761 20.5327V20.5502ZM11.9913 22.0436H12.1203L12.1572 22.2544L12.2862 22.3071L12.3046 22.3948L11.3462 22.4476L11.5675 22.1313L11.9913 22.0436ZM14.2214 22.2544V22.3246H14.1476V22.2544H14.2214ZM13.0049 22.0963L13.0603 22.1313L12.9497 22.1665L12.9129 22.0963H13.0049ZM27.5467 20.6379L27.6572 20.7258L27.5651 20.761H27.5467V20.6379ZM13.2262 22.0436V22.0963L13.1524 22.0436H13.2262ZM14.1476 22.1665L14.0555 22.2544L14.1476 22.0963V22.1665ZM27.4177 20.6731V20.761L27.731 21.0421L27.4177 20.9015V20.6731ZM13.0971 22.0436H13.0603L13.0971 22.0259V22.0436ZM28.2654 20.4273L28.1548 20.6029L28.118 20.3569L28.1918 20.3745L28.2654 20.4273ZM13.9633 22.1313L14.0187 22.1665L13.7606 22.3948L13.7792 22.1665L13.9633 22.1313ZM27.2518 20.6029L27.3256 20.6731L27.2334 20.7258L27.1964 20.6379L27.2518 20.6029ZM13.8712 22.0436H13.8528V22.0259H13.8712V22.0436ZM13.7238 21.9732V22.0963L13.6316 22.0259L13.687 21.9732H13.7238ZM13.5579 22.0259L13.6316 22.1313L13.4657 22.1665L13.5579 21.9205V22.0259ZM27.8784 20.2866L28.0627 20.3569V20.48H28.0259L27.8784 20.2866ZM27.1043 20.5502H27.1964L27.1596 20.7258L27.0491 20.6731L27.1043 20.5502ZM13.7792 21.8502L13.8528 21.9205V21.9732L13.7238 21.9205L13.7792 21.8502ZM27.1596 20.5327H27.1043V20.48H27.1964L27.1596 20.5327ZM27.2334 20.48L27.1596 20.4273H27.2334V20.48ZM27.0121 20.48L27.0491 20.5327L27.0121 20.5502V20.48ZM14.332 21.6921L14.2768 21.6394H14.332V21.6921ZM27.0121 20.2339H27.1596L27.0491 20.3042L27.0121 20.2339ZM14.5716 21.5515L14.6268 21.6394H14.4795V21.5515H14.5716ZM27.1596 20.1987V20.146V20.2339H27.1043L27.1596 20.1987ZM26.6251 20.2339H26.6988L26.6804 20.3042L26.5883 20.2866L26.6251 20.2339ZM16.1934 21.7273H16.046L16.1382 21.6394H16.1934V21.7273ZM26.8648 20.2339H26.8094V20.1987L26.8648 20.2339ZM28.0627 19.7596L28.3208 19.9352V20.3569L28.118 20.0583V20.3042L27.8784 20.2339L28.0627 19.7596ZM27.0121 19.9177L27.0491 20.0583L26.8832 20.1987V20.0056L27.0121 19.9177ZM27.3808 19.7596H27.5651L27.6572 19.9177L27.3256 19.8475L27.3808 19.6717V19.7596ZM26.8648 19.7771L27.7864 20.2866L27.5467 20.2339L27.5099 20.3745L27.8784 20.4273L28.0627 20.9192L27.5651 20.5502L27.3256 20.6029L27.344 20.2866L27.1596 20.3569L27.1964 20.146L27.0121 19.9177H26.8832L26.8648 19.7771ZM15.0323 21.2177H14.9955L15.0323 21.2002V21.2177ZM27.2518 19.619V19.7596L27.1043 19.7244L27.1596 19.6717L27.2518 19.619ZM27.5099 19.619L27.6942 19.7069L27.6572 19.7596L27.3808 19.5487L27.5099 19.619ZM16.986 21.1123V21.165L16.8939 21.1123L16.9123 21.0773L16.986 21.1123ZM15.4379 21.0421L15.4931 21.0773H15.3088L15.3457 21.0421H15.4379ZM16.728 21.0421V21.0773V21.1123L16.5806 21.2177L16.728 21.0421ZM16.8939 21.0421L16.8569 21.1123H16.7648L16.8201 21.0773L16.8939 21.0421ZM9.31883 20.1987L9.44795 20.2339H9.33739L9.31883 20.1987ZM27.0491 19.3204L27.2518 19.461L27.1964 19.5839H27.1043L27.0491 19.3204ZM26.5515 19.461L26.6988 19.619L26.6804 20.1987L26.3856 19.5487L26.5515 19.461ZM26.5515 19.2325H27.0121L27.0491 19.496L26.8094 19.3379L27.0121 19.6717L26.7542 19.7244L26.5515 19.2325ZM17.3547 20.5502L17.4836 20.6029L17.2809 20.7258L17.2256 20.6379L17.3547 20.5502ZM9.26363 19.6717L9.15307 19.7244L9.07931 19.6717L9.26363 19.619V19.6717ZM25.6852 19.3204L25.759 19.5487L25.6299 19.5839L25.5377 19.3204H25.6852ZM17.0044 20.3042V20.2339V20.2866V20.3042ZM25.759 19.1798L25.9985 19.2325L26.2566 19.6717L26.404 20.0933L26.1644 19.7069L25.9248 19.6717L25.759 19.1798ZM17.6496 19.8825L17.7048 19.9177V19.9352L17.6126 19.9177L17.6496 19.8825ZM17.2993 19.9352V20.0056L17.1518 19.9177L17.1888 19.8825L17.2993 19.9352ZM17.5388 19.9177H17.4836V19.8825H17.5574L17.5388 19.9177ZM17.4099 19.9177L17.7969 20.2339L17.4652 20.2866L17.6126 20.4273L17.3547 20.3745L16.8939 20.9192L17.0596 20.6029H16.6912H16.8939L16.8201 20.8313L16.5806 20.3745L16.8569 20.146L16.9123 20.1987L16.8939 20.2339H16.986V20.3569L17.0596 20.4273L17.0966 20.48L16.986 20.0583L17.1888 20.1987L17.4099 20.0056L17.2809 19.8475L17.4099 19.9177ZM25.1323 18.8108V18.8812V18.9866L25.0585 18.7406L25.1323 18.8108ZM17.2993 19.7596H17.3547L17.4099 19.8475H17.4836L17.2256 19.7771L17.2993 19.7596ZM17.9444 19.7069L17.9812 19.619V19.6717L17.9444 19.7069ZM25.3904 18.5649L25.4456 18.7406L25.8142 18.6001V18.8108L25.372 18.7406L25.851 18.8635L25.9801 19.1095L25.4456 18.9339L25.6299 19.1798L25.5377 19.2325L25.1876 18.9866V18.8108L25.372 18.8812L25.1139 18.6527L25.1323 18.6001L25.2428 18.7406L25.3904 18.5649ZM17.5388 19.619H17.4836L17.4652 19.5839H17.4836L17.5388 19.619ZM25.9801 18.3541L26.0353 18.4243L25.851 18.3893L25.9248 18.3541H25.9801ZM25.759 18.3541L26.0907 18.4243L26.4593 18.8108L26.0353 18.5122L26.4593 19.0393L26.1644 19.4083L26.2196 19.0568L25.759 18.3541ZM17.5388 19.619V19.6717V19.5839L17.4836 19.5487L17.5574 19.461L17.9259 19.5839L17.5388 19.8825L17.2993 19.7244L17.5388 19.619ZM17.6126 19.461L17.5574 19.4083L17.6496 19.3204V19.3379L17.6126 19.461ZM14.0555 19.1798L14.0187 19.1447H14.0555V19.1798ZM13.7792 19.1447L13.687 19.1798L13.8712 19.0393L13.7792 19.1447ZM17.7048 19.0568H17.7601L17.6496 19.1095L17.7048 19.0393V19.0568ZM18.4236 18.7054H18.3867L18.4236 18.6001L18.4788 18.6527L18.4236 18.7054ZM17.2256 18.7406H17.1518V18.7054L17.2256 18.6527V18.7406ZM18.6264 18.5649V18.6001H18.571V18.5649H18.6264ZM20.838 17.6514H20.7459L20.838 17.5459V17.6514ZM11.678 17.3703L11.8438 17.7391L11.5675 17.9149L11.0329 17.3878L11.678 17.3703ZM20.1929 17.6162L20.2851 17.6514L20.3588 17.6162V17.6514L20.1929 17.7743V17.6162ZM17.7969 17.8445H17.7601L17.8523 17.6866L17.9259 17.7391L17.7969 17.8445ZM9.02395 16.8607L8.85819 16.7728L8.76603 16.5621L9.02395 16.8607ZM20.3588 17.5459L20.2851 17.6162L20.5432 17.3878V17.4405L20.3588 17.5459ZM8.72907 16.4742H8.76603V16.5094L8.72907 16.4742ZM19.5478 17.3878L19.5848 17.4405L19.5478 17.4932V17.3878ZM19.4926 17.4932L19.4188 17.4405V17.3878H19.4926V17.4932ZM19.898 17.2472V17.2999L19.8243 17.2472H19.8611H19.898ZM19.511 17.2472L19.5478 17.3176L19.511 17.3703L19.4926 17.3176L19.511 17.2472ZM10.4616 14.6296V14.6646L10.3326 14.5065L10.4248 14.5769L10.4616 14.6296ZM13.6316 14.8579V14.9457L13.5027 14.9282L13.5579 14.8579H13.6316ZM10.2956 14.3133L10.5537 14.2606L11.0883 14.7876L10.7196 14.9457L10.6459 14.7876L10.4616 14.6998L10.4985 14.6296L10.2956 14.3836H10.2588L10.0929 14.5065L9.96395 14.3836L10.0929 14.0498L10.2956 14.3133ZM11.9913 12.7673H11.8992H12.0281H11.9913ZM12.1572 12.7321L12.3046 12.6267L12.2862 12.6794L12.1572 12.7321ZM12.36 12.5916L12.4889 12.4685H12.5259L12.36 12.5916ZM12.8576 12.3808L12.8392 12.4158H12.7838L12.8576 12.3808ZM12.9129 12.3808L13.134 12.2929L13.0971 12.3104L12.9129 12.3808ZM18.1102 18.442L17.9444 18.4243L17.9259 18.3541L18.0918 17.4932L18.4788 17.2472L19.1056 17.3176L18.6632 17.1595L18.9764 16.7905L18.6632 17.0716L18.3867 17.0189L17.6126 17.9149L17.5574 17.9676L17.4652 17.9149H17.3547L17.5388 18.2312L17.2809 18.442L17.1888 18.3541L16.8201 18.8812L17.2809 19.1447L16.7648 19.7771L15.7144 20.3745V20.7258L14.7928 21.1123L14.6638 21.2529L14.8849 21.3408L14.719 21.4989V21.3408H14.6638L14.6268 21.5165L14.1662 21.5515L14.0924 21.78L14.0187 21.5515L13.2814 21.9205L13.3921 21.78L13.0971 21.6921L12.9129 22.1313H12.6548L12.5259 21.8502V22.1665L12.2862 22.0259L12.3046 22.1665L12.1572 22.2192L12.194 22.0259L13.0603 21.4286L13.4105 21.3759L13.5579 21.6394V21.5165L13.7792 21.6394V21.2002L14.5716 20.7258L14.6822 20.8313L14.8849 20.3745L15.3088 20.2339L15.2904 19.7244L15.4931 19.7069L15.2904 19.5487L15.5852 19.1798L15.659 18.8635L14.9955 19.2677L14.8849 18.9866L14.9955 18.9339L15.0692 19.0568L15.0323 18.9339L14.8849 18.8108L14.6822 19.461L14.0555 18.8108L13.3921 19.1798L13.1524 19.1095L13.4473 18.9866L13.5027 18.7406H13.3921L13.3184 18.5649L13.4657 18.4243L13.2262 17.6866L13.5027 17.3703L13.134 17.6866L13.1524 17.9324L12.71 18.0027L11.9913 17.2999L12.2862 17.0189L12.36 17.1068L12.4889 17.2122L12.4521 17.3176L12.9129 17.2472L12.71 17.1595L12.7838 17.0364L12.6548 17.1068L12.2862 17.0189H12.194L12.36 16.8607L12.1203 16.7378L12.194 16.7201L12.2124 16.5972H12.2862L12.3046 16.5621H12.36L12.4521 16.4742L12.2124 16.5972L12.0281 16.7905L11.8808 16.1932H12.1203L12.3968 15.6661L12.5995 15.754L12.5259 15.4026L12.8392 15.2796V15.139L13.0603 15.1917L13.0049 15.3674L13.687 14.9457L14.0924 15.0161L14.332 14.7525L14.0555 14.2606L14.3504 14.0321L14.2214 13.7863L13.5579 14.2606L13.4657 13.9619L13.4473 14.1727L12.3046 13.874L12.2862 13.5754L12.1572 13.3646V13.2944V13.2592L12.4521 13.2944L12.0281 13.0835L11.7518 12.82H12.0281L12.4889 12.5389L12.8392 12.5916L12.7654 12.4158L13.3184 12.2929H13.5027V12.3104L13.2814 12.6267L13.4473 12.7673L14.4057 12.82L14.3504 12.6267L14.0924 12.6794L14.0187 12.0821L14.2214 12.5389L14.719 12.6267V12.4158L14.2768 12.451L14.332 12.1172L14.0187 12.0821L14.0555 11.9414V11.8712H13.5579L13.4657 11.4145L12.7654 10.6591L12.9497 10.2724L13.8528 10.2197L14.4795 9.27113L14.4241 9.42925L15.1244 9.13052L15.0323 9.32383L15.1614 9.48196L15.3457 9.21842L15.0692 9.09533L15.788 8.97239L16.2304 8.5332L16.4515 8.72652L16.2856 8.95487L16.3593 9.04262L16.6358 8.72652L16.8939 9.04262L17.4652 8.97239L17.5388 9.21842L17.3547 9.25345L17.7969 9.32383L18.2945 9.21842L19.7137 9.55219L20.2851 9.32383L20.9854 9.6049L22.6257 17.3176L23.4182 17.1595V17.3703L24.432 18.2312L24.6899 17.9324L24.7452 17.9149L24.819 17.4932L25.2428 17.2999L26.404 18.0905L27.5651 19.3379L28.5235 19.496L28.8 20.3745L28.5235 20.6379L28.5788 20.146L28.4313 20.3745L28.5235 20.2339L28.118 19.619L27.731 20.2339L27.6572 19.7244L27.86 19.6717V19.619L27.2518 19.4083L27.0121 19.1095L26.6251 19.1447V19.0568L26.7542 19.0393L26.8094 18.9339V18.8812L26.4593 18.7406L26.4961 18.7054L26.7542 18.8108L26.8094 18.7406L26.4593 18.5297V18.6527L26.3118 18.3893L26.1644 18.442V18.0554L26.0907 18.3893L25.9248 18.2839H25.7774L25.2428 17.4932L25.6852 18.442L25.4456 18.3541L25.2428 18.442L25.1876 18.0027L24.9849 17.9324L25.0585 18.2135L24.5979 18.0027V18.2312L24.8374 18.1257L25.1876 18.4243L24.9849 18.7054L23.2708 17.9149L23.363 17.4932L23.492 17.827L23.6209 17.6162L23.326 17.4405L22.9944 17.827L22.5336 17.7743L22.552 17.6866L22.4968 17.5459L22.4046 17.6866L21.2803 17.827L20.9302 17.6866L20.9854 17.2472L20.7459 17.6514L20.4878 17.5459L20.5432 17.4932L20.5984 17.3703L20.2851 17.3878L20.3588 17.2999L20.1376 17.3703L20.3219 17.2472H20.0454L20.2297 17.0364L19.8243 17.2472L19.6769 17.0716L19.5848 17.3176V16.9486L19.2161 17.3703L19.4926 17.5459L19.3635 17.6162L19.2713 17.6866H19.5848L19.4004 17.827V18.0905L19.0502 18.2312L18.9764 17.9676L18.9212 18.3541L18.8475 18.1257V18.3893L18.7185 18.2839V18.4243L18.4236 18.5122L18.2945 18.8108L17.9812 18.8635L17.9259 18.6527L18.1471 18.6001L18.2577 18.3541L18.1102 18.442Z" fill="#6C6051"/>
</svg>
