<svg width="32" height="32" viewBox="0 0 32 32" fill="none" xmlns="http://www.w3.org/2000/svg">
<path d="M26.4322 7.43245L26.6666 28.8002L19.1313 28.7658L5.33325 23.1916L5.76863 22.1938H6.43844L6.73985 21.6088L6.63938 20.9207L5.96957 20.6109L6.00306 20.0948L5.8691 19.5098V19.1658L6.204 18.9938L6.63938 18.512L6.84032 17.7895L6.73985 16.6884L7.24221 16.0002L8.24692 15.312L7.34267 14.4863L7.20871 13.6948L6.5724 12.5938L6.47192 11.4583L6.73985 11.1141L6.43844 9.7378L6.5724 8.12068L6.30448 7.46687L6.43844 7.05396L7.00777 6.88191L7.67758 7.05396L8.11296 7.53568L8.51482 7.46687L8.78283 6.74427L8.98373 3.2002L26.4322 3.44106V7.43245Z" fill="#6C6051"/>
</svg>
