<svg width="32" height="32" viewBox="0 0 32 32" fill="none" xmlns="http://www.w3.org/2000/svg">
<path d="M3.83541 11.6787L3.29073 23.2861L3.59333 23.759H3.86568L3.83541 23.9168L4.92477 23.759L5.65102 24.0431V27.7333H21.235V27.0078L21.598 26.787L21.5073 25.9985L21.1441 25.6516L21.4164 25.3362V24.6738L20.8415 24.0431L21.235 23.9168L21.2955 23.6014L20.902 23.2544L21.8401 22.3713L21.6585 21.9612L21.9006 21.5828L21.5376 21.2357L22.6268 20.8573L22.6875 20.4472L22.2336 20.0373L22.8084 19.7534L22.99 19.1856H23.3531V18.5548L23.686 18.5864L24.14 18.3025V16.82L24.382 16.1891H24.8056L24.8662 15.5899L25.8043 14.9907L25.6227 14.3913L26.1068 14.0759L26.3792 13.5082H26.6817L26.8633 13.319L26.6515 11.9627L27.0752 11.3634L27.1054 10.9534L27.5896 10.7011L27.4988 10.354L27.65 10.0071L27.4382 9.47097L28.7092 8.80854L28.2251 8.49317L28.4369 8.24084L28.8 8.3354L28.5881 7.64145L25.1385 7.79922L25.5622 6.9476L26.7422 5.78058V5.21285L26.2884 4.4243H14.5475L3.19995 4.2666L3.83541 11.6787Z" fill="#6C6051"/>
</svg>
