<svg width="32" height="32" viewBox="0 0 32 32" fill="none" xmlns="http://www.w3.org/2000/svg">
<path d="M18.1938 29.1984L17.9173 29.165L17.572 28.4633H17.6755L18.1938 29.1984ZM15.1536 27.8953L15.3608 27.9286V28.029L15.0154 27.8953H15.1536ZM18.1938 27.4609L18.2628 27.7282H17.9865L17.5374 27.3271L18.1938 27.4609ZM13.7716 25.7567L13.8406 25.9573L13.4953 26.1576L13.2533 25.7567H13.7716ZM13.0808 25.69V25.7567L12.7352 25.69L12.8734 25.5896L13.0808 25.69ZM14.3244 25.6231L14.9808 25.5896L15.0498 25.69L14.3935 25.8904L14.0134 25.5896L14.3244 25.6231ZM13.3915 5.34101L13.4953 10.9879L27.2798 22.1481L28.1437 23.6183L28.8 24.0192L27.8327 25.1553L27.9017 26.3916L27.3836 26.7926L27.6945 27.795L28.2127 28.029L28.1781 28.7306L21.4759 29.8666L21.1995 29.4657L21.4759 29.5324L21.4067 29.3321L21.0957 29.4657L20.8886 28.2628L20.2667 27.4609L18.643 26.3916L17.9865 26.4251L17.6755 25.6231L16.9155 25.69L16.0864 25.4225L15.6373 24.9214L14.8081 24.5205L12.5625 24.3869L12.2169 24.1863V22.3819L11.5606 22.2148V21.6135L10.5932 20.9117L10.0059 19.9428L9.10769 19.074L8.90033 18.1384L9.17668 18.0716L9.34945 17.4702L9.0041 17.1025H8.45121L8.00209 16.6014L7.48397 15.432V14.6634L7.79491 14.5632L7.82933 15.1647L8.45121 15.599H8.69315L8.31303 14.797L8.00209 14.5632L7.79491 14.0619L7.86391 13.9283L8.20945 13.8948L8.38221 13.9283H9.52222L9.6258 13.6276L10.1441 13.9283L9.72957 13.6276L9.34945 13.8948L9.52222 13.5941L8.96951 13.8948L8.69315 13.5941L8.34762 13.8948L7.79491 13.5608L7.48397 13.5941L7.65656 14.3292L7.48397 14.4963L6.48202 13.7612L6.30927 14.0286L6.37836 13.3268L6.72386 13.6276L6.06744 12.5917L4.65097 11.155V10.6538L4.40913 9.85183L4.54733 8.91635L4.13274 8.04743L3.23451 7.31241L3.19995 6.74438L3.44179 5.94246L3.85637 5.5415L3.64907 5.77538L4.06365 3.77057L3.82182 3.03547L3.64907 2.73475L3.68362 2.1333H13.3571L13.3915 5.34101Z" fill="#6C6051"/>
</svg>
