<svg width="32" height="32" viewBox="0 0 32 32" fill="none" xmlns="http://www.w3.org/2000/svg">
<path d="M12.7266 5.64885L15.3299 5.80677L15.4072 6.28053L16 6.2279L16.0258 5.80677L29.6604 5.85942L29.8666 15.6505L29.7378 17.7562L29.4026 18.2036L29.1965 19.5196L28.7583 19.6775L28.9646 19.3617L28.6037 19.1775H27.4696L26.4386 19.6775L25.7685 18.9933L25.4076 19.8091L24.222 19.5196L24.0931 20.0461L23.7065 19.8354L22.8045 20.3882L21.9796 19.8619V19.1512L21.2837 18.809L21.8765 19.6249L21.696 20.0461L21.9538 20.2303L21.6446 20.4672L20.4331 20.283L19.6599 20.862L19.4795 20.6514L19.1961 20.7567L18.2939 20.3882L17.4691 20.5988L17.0568 20.862L16.335 20.6514L15.4072 20.8356H14.2989L14.0153 20.4672L13.938 19.8882L12.5461 21.5727L11.9533 21.7043L10.9223 22.5201L10.51 22.7045L10.2008 22.3359L9.5563 22.7833L9.37586 22.678L8.91202 23.2571L8.42235 23.0992L7.57163 23.5466L5.74172 24.7311L5.30357 24.7048L5.04582 25.2311L4.94272 25.0732L4.11793 25.5206L3.86019 25.2574L3.21584 25.5997L2.1333 23.7572L5.63862 21.6516L4.7623 20.1249L5.76749 5.33301L12.7266 5.64885Z" fill="#6C6051"/>
</svg>
