<svg width="32" height="32" viewBox="0 0 32 32" fill="none" xmlns="http://www.w3.org/2000/svg">
<path d="M16.3134 2.78162L15.5433 3.46594L15.3234 4.25832L14.4068 5.55495L13.7101 5.8791L13.4901 6.7075L14.15 7.35583L14.2601 8.11226L13.8567 9.2287L15.3234 12.002L15.8368 12.11L16.3134 12.7585L16.7535 13.911L16.68 15.6398L16.9001 17.5487L17.3033 17.8009L18.1101 19.2415L18.22 20.4661L20.4933 22.8792L21.8501 22.9874L21.96 23.3115L22.1433 25.4366L21.96 26.1928L21.9233 25.2204L21.7033 24.9682H20.9334L21.1899 25.7607H20.7133L21.5199 26.1928L21.1899 26.445L20.0534 26.8411L19.7966 27.1294H20.1266L19.7966 27.5256L21.1534 27.1294L21.63 27.5615L22.18 26.6251L22.4001 29.8666L21.96 29.7226L21.8501 29.8666H11.8035L10.6667 4.47443L11.9868 2.81764L13.5635 2.1333L15.2867 2.16932L16.3134 2.78162Z" fill="#6C6051"/>
</svg>
