<svg width="32" height="32" viewBox="0 0 32 32" fill="none" xmlns="http://www.w3.org/2000/svg">
<path d="M21.0408 27.7333H20.9829L21.0988 27.7044L21.0408 27.7333ZM22.2866 27.618V27.7333H22.0259L22.0839 27.7044L22.2866 27.618ZM22.5764 27.618L22.2866 27.7333L22.4026 27.5891L22.5764 27.618ZM21.0408 27.5891L21.0988 27.618L20.9829 27.5891H21.0408ZM23.8221 27.3585H23.6772L23.88 27.3296L23.8221 27.3585ZM23.2427 27.3585L23.1558 27.3296V27.2431H23.2427V27.3585ZM22.9241 27.2431L23.0109 27.3873L22.6054 27.618L22.7792 27.3585L22.982 27.3873L22.9241 27.2431ZM23.1269 27.2431L23.0109 27.3585V27.2144H23.0978L23.1269 27.2431ZM23.6483 27.2431L23.5614 27.2144V27.1855V27.2144L23.6483 27.2431ZM24.4305 27.2144L24.1698 27.1855L24.5464 27.0991V27.1855L24.4305 27.2144ZM23.5325 27.3585L23.5034 27.3873L23.3586 27.0702L23.4744 27.1855L23.5325 27.3585ZM24.8941 27.0702L24.5464 27.1855L24.923 26.8684L24.8941 27.0702ZM25.2997 26.7242V26.8107L25.0969 26.8396L25.2997 26.6955V26.7242ZM25.5893 26.6955H25.5604L25.5893 26.5513V26.6955ZM25.8212 26.436H25.7921L25.937 26.3207L25.8212 26.436ZM24.5175 25.1098H24.4305V24.9946H24.5464L24.5175 25.1098ZM24.3436 24.9369H24.4305L24.4015 24.9946L24.2857 24.9369H24.3436ZM26.7483 25.5422L26.0819 26.3207H25.9949L26.7483 25.3117V25.0809L27.1248 24.8504L26.7483 25.5422ZM27.2118 24.5909L27.1828 24.6486L27.3276 24.418L27.2986 24.4757L27.2118 24.5909ZM27.3856 23.6684H27.3276L27.3565 23.5242H27.3856V23.6684ZM23.5034 23.2648H23.2427V23.1495L23.3586 23.063L23.5034 23.2648ZM23.1558 23.0342V23.1782L23.0109 23.063L23.0978 23.0342H23.1558ZM22.5764 23.0053L22.4605 23.063L22.4026 23.0053H22.5764ZM22.982 23.0342L22.9241 23.063V22.9188L22.982 23.0053V23.0342ZM21.0988 20.9008L21.3597 20.9873L20.9829 20.9008L20.838 20.6413L21.0988 20.9008ZM20.7222 20.2954V20.3819L20.6933 20.1224H20.7222V20.2954ZM21.2148 20.7566L21.1278 20.6702L20.8671 20.1224L21.0988 20.1513L21.2148 20.7566ZM20.6933 19.9495L20.6063 20.0937V19.7188V19.7765L20.6933 19.9495ZM19.6213 17.8161V17.845L19.3316 17.4703H19.4185L19.6213 17.8161ZM19.6213 17.0666H19.5634H19.6213ZM27.3276 18.335L26.98 17.499L26.4585 15.971L26.7483 16.4901L27.3276 18.335ZM25.8212 14.9045L25.7921 14.6738L25.8212 14.8179V14.9045ZM25.8212 13.4918L25.7921 13.9819V14.6738L25.4735 13.636L25.7921 13.3189L25.8212 13.4918ZM19.3316 12.8H19.4185V12.8576H19.3316V12.8ZM19.3316 12.7423V12.6558L19.4185 12.7423H19.3316ZM18.2886 11.3873H18.2017V11.3585L18.2597 11.272L18.2886 11.3873ZM11.915 9.28275L11.7992 9.45582L11.5673 9.28275H11.7701H11.915ZM12.2916 9.51346L12.0888 9.59999L11.915 9.48456H12.2046L13.1898 8.99455L12.2916 9.51346ZM13.4215 8.96566L13.2477 8.99455L13.5664 8.82163L13.4215 8.96566ZM7.45342 6.54409L5.30957 6.65939H5.16471L7.04784 6.4576L7.56932 6.54409H7.45342ZM19.6213 17.0666L20.3166 16.0865L20.2007 15.7116H20.0558V16.0865H19.8241L19.7951 15.5963L19.3316 15.3945V15.5676H19.4476L19.2736 15.6828L19.7083 15.9134L19.4185 16.4901L18.955 16.0576L19.1867 16.4323V16.6054L18.8101 15.8558L19.4185 13.8667L19.5634 12.9152L19.3316 12.6269L19.5634 12.6558V12.2811L19.3027 11.964L19.0999 11.272H18.2886L17.7381 10.3783L17.1878 9.97472L17.2457 9.51346L16.7821 9.28275L16.3765 8.5621L15.3336 7.92786L14.841 8.04318L14.7252 7.8702L14.0878 8.10084L14.2616 8.30263L13.9429 8.18732L13.9141 8.30263L14.2616 8.44678V8.5621L14.2037 8.61976L13.7981 8.5621L12.6102 9.10983L12.6682 8.93691L12.2046 9.16747L11.1617 9.28275L11.0749 9.10983L10.901 8.61976L11.1617 9.28275L11.2777 8.82163L11.1617 8.5621L10.1767 7.58191L10.8721 8.072L11.0749 7.95669L10.7851 8.04318L10.7561 7.58191L10.5244 7.69724L10.0318 7.40895L10.6113 7.14948L10.5244 7.00534L10.1188 7.17832L9.91594 7.00534L9.65521 7.14948L9.91594 7.20714L10.0318 7.58191L8.98885 7.00534L7.59828 6.51525L8.11976 6.63056L8.32256 6.4576L8.46741 6.65939V6.4576L8.873 6.65939L8.75715 6.31345L8.52537 6.16931L7.94593 6.34227V6.16931L7.65622 6.14047L7.36651 6.51525L6.84504 6.4576L5.51236 6.63056L6.43944 6.31345L6.06281 6.05398L6.20766 5.88102L6.03385 5.67921L5.88899 6.19813L5.54133 5.79453L5.65722 6.16931L5.28059 6.63056L4.4694 6.83237L5.01986 6.19813L4.78808 5.99633L4.93294 5.41975L4.2666 4.75669L4.35352 4.2666L12.3206 4.61254L12.6972 5.62155L20.838 6.34227L21.0988 7.06299L21.4465 7.03417V5.67921L21.6493 5.50624L23.3586 5.88102V6.51525L23.1269 6.16931V6.4576L23.4744 6.68823L23.9091 9.10983L24.923 11.7333L25.8212 13.1747L26.1689 13.8089L25.9661 14.0396V14.6738L26.4585 15.9423L25.8212 14.6738L25.937 13.3189H25.4155L25.4446 12.8L25.0969 12.6558L25.5604 14.1261L26.6323 16.6054L26.7483 17.2396L27.2118 18.3639V18.3063L26.8351 18.191L27.3856 18.5657L27.7333 19.7188L27.3856 23.4089V22.9188L26.98 23.9279L26.8641 24.8504L26.5454 25.2828L26.6323 25.4846L26.4875 25.2828L26.3136 25.3117L26.4585 25.3693L26.4875 25.5422L26.3136 25.4558L26.2847 25.2828L25.5893 25.6L25.0969 25.4846L24.4305 25.7729L24.1698 25.5422L24.054 25.2828L24.2857 24.9369L24.4305 25.1098L24.7492 25.3117H24.6333L24.923 25.2251L24.1698 24.7639L24.054 24.1297L23.5034 23.1782L22.6343 22.7748L22.2866 22.89L22.5764 22.6306L22.2866 22.5441L22.1128 22.1117V22.2846L21.91 20.9873L21.823 20.7855V20.9873L21.4465 20.9008L22.1128 20.0937L21.7651 20.2666L21.6493 20.6413H21.2727L21.2148 19.3441L21.6204 19.027L20.9829 19.2575L20.6063 18.8828L20.9829 19.7477L20.4905 19.6035L19.7083 17.9892L19.6793 17.5855L19.3027 17.3261L19.1867 17.153L19.4185 17.3261L19.3316 17.2396H19.6213L19.4476 17.0954L19.6793 17.0666H19.6213ZM25.2707 18.335L24.4015 19.1999L25.039 19.8919L25.5604 20.1513L25.8212 19.1134L25.6763 18.681L25.2707 18.335Z" fill="#6C6051"/>
</svg>
