<svg width="32" height="32" viewBox="0 0 32 32" fill="none" xmlns="http://www.w3.org/2000/svg">
<path d="M24.6522 27.7055L24.473 26.8411L24.8672 26.3729L24.6522 27.3094V27.7055ZM6.95362 17.4766L6.30874 16.108L5.91463 14.4152L4.2666 2.1333L16.412 2.3494L15.4087 3.3939L15.2654 4.04222L16.0894 4.69052L16.7344 5.33884L17.5584 5.59097L18.3108 7.28378L19.0631 8.50833L20.5321 9.66099L20.9619 10.6694L22.2159 11.4618V12.11L22.6458 12.3983L22.5742 12.7224L22.9683 12.9025L23.0758 13.3707L24.258 14.0189L24.8672 15.7838V16.5402L25.906 17.3326L26.1927 18.2691V19.3855L27.7333 20.1419L27.4109 20.43L27.2317 20.322L27.0526 20.5382L27.2317 20.7543L27.0167 20.9344L26.3001 20.7543L26.4434 20.8984L26.1927 21.0785L26.7658 21.1864L26.4077 21.7267L25.512 21.5827L25.906 21.9068L25.6912 22.1949L26.1569 22.0869L26.1927 21.9068V22.0869L26.0851 22.7352L25.6912 22.3031L25.906 22.5551L25.2612 22.8433L25.5479 22.9513L25.4403 23.2034L26.0851 22.8792L25.5479 23.8157L25.2612 23.5996L25.5479 24.1399L24.473 23.9598L25.2612 24.2479L25.5479 24.6441L25.0462 25.2924L24.7955 24.8602L24.6522 24.8963V25.4366L24.473 25.3645L24.688 25.6886L24.8672 25.3645L24.7955 26.0127L24.3654 25.6167L24.6522 26.0127L24.3654 26.1928L24.6522 26.3729L24.4013 26.6612L24.473 27.0572L24.258 27.0212L24.4013 27.8497L22.0009 27.2013L21.6785 27.7055L21.8218 28.606L21.6068 29.8306L20.9619 29.8666L20.6036 28.7141L7.20442 27.6696L6.55953 26.1209L6.48787 25.4366L6.09378 24.8602L6.48787 22.7352L5.98629 21.0785L6.63118 19.0255L7.31189 18.3771L6.84614 17.981L6.95362 17.4766Z" fill="#6C6051"/>
</svg>
