<svg width="32" height="32" viewBox="0 0 32 32" fill="none" xmlns="http://www.w3.org/2000/svg">
<path d="M25.0417 18.1674L26.8603 18.9842L28.8 21.3295L24.6984 24.5335L23.587 23.7796L22.8596 20.1568L23.9305 18.9423L23.7083 17.5601L25.0417 18.1674ZM20.4755 16.2828L20.0107 16.3247L19.8086 16.1991L20.3542 15.843L20.4755 16.2828ZM18.8792 15.1102H18.4347L18.0508 14.3144L19.0206 14.44L18.8792 15.1102ZM20.2936 13.6863L20.7584 14.3772L21.91 14.1679L23.0414 15.2568L21.0816 15.9687L19.7076 14.2725L20.2936 13.6863ZM17.2628 12.681L18.8792 12.9952H19.7076L17.0001 13.3302L17.2628 12.681ZM14.0905 10.7546L14.8988 11.5502L15.02 12.4506L13.646 11.8435L13.1208 12.2621L12.3328 10.8801L13.8076 10.1473L14.0905 10.7546ZM3.28077 9.64462L3.19995 9.20491L3.94755 8.57658L3.88693 9.03731L3.28077 9.64462ZM7.24099 7.48766L6.79648 9.33045L5.18006 8.49294L6.17011 7.4668L7.24099 7.48766Z" fill="#6C6051"/>
</svg>
