<svg width="32" height="32" viewBox="0 0 32 32" fill="none" xmlns="http://www.w3.org/2000/svg">
<path d="M24.3629 20.0906L24.5332 29.8666L15.9829 29.832L7.46655 29.4853L7.8072 22.3093L8.31818 20.992L8.04566 20.6453L7.46655 20.472V19.744L8.52257 18.2533L8.5907 17.6986L9.81705 15.48L9.51046 14.856L8.86323 14.1973L8.35225 12.3253L8.96542 2.1333L11.4862 2.30663L11.2819 6.11997L12.1335 7.36797L12.0654 7.9573L12.2357 8.23463L12.0654 8.40797L13.0873 9.13597L14.4159 11.3546L14.7224 11.216L14.9609 11.5973L15.6422 11.528L15.2675 13.4346L15.0972 13.5386L15.3697 14.648L14.9268 15.0293L15.0972 15.3066L14.9268 15.8266L15.6081 16.208L16.4938 15.376L16.9026 15.7573L17.1411 16.9013L17.8564 18.0453V18.6346L18.163 18.9466L18.674 18.9813L19.0828 20.2293L19.4575 20.6106L19.7641 20.1253L20.7179 20.264L21.0926 19.848L23.2728 19.9173L23.1365 19.536L23.4772 19.0853L24.3629 20.0906Z" fill="#6C6051"/>
</svg>
