<svg width="32" height="32" viewBox="0 0 32 32" fill="none" xmlns="http://www.w3.org/2000/svg">
<path d="M19.1264 2.3045V3.60556L20.1433 6.13922L20.1741 18.02L19.8351 18.1569L19.9585 18.739L19.6502 19.1841L20.1741 20.0059L20.2666 20.9303L19.7118 21.9574L19.7735 22.2656L19.3728 22.471L19.0031 23.3613L18.7258 23.2243L18.5102 23.601L18.7874 23.9092L18.4485 24.2856L18.695 24.3543L18.356 24.4912V25.2787H18.1712L18.356 25.621H18.1712L18.356 25.9292L17.9554 26.5797L18.2019 27.2987L16.8152 27.8123L16.9386 29.3189L16.6613 29.4215L14.9665 28.6341L14.3192 29.4215L14.5042 29.8666H14.3501L13.9804 29.353L13.8263 29.4215L13.9495 29.7297L13.5182 29.4558L13.1483 28.3943L13.3332 27.7781L13.1483 27.0933V26.3743L11.7 24.9363L11.0222 24.6282L10.1901 23.601L10.1593 23.0189L10.8372 21.5123L10.9913 20.4167L10.0052 19.8689L9.45063 20.2456L9.204 20.0743L8.83428 18.2256L6.83124 15.9656L6.46152 14.5277L6.3999 13.261L6.52314 12.7815L6.89286 12.6103L6.86213 11.6859L7.69408 11.2066L8.46456 9.73431L8.37205 9.01533L7.97144 8.43327L8.21792 7.54303L9.35813 7.47457L10.221 6.9952L11.1145 5.52294L11.2378 4.18763L10.4367 3.46861L10.3749 2.88656L9.72785 2.1333L19.1264 2.3045Z" fill="#6C6051"/>
</svg>
