<svg width="32" height="32" viewBox="0 0 32 32" fill="none" xmlns="http://www.w3.org/2000/svg">
<path d="M25.3626 2.50992L25.4304 20.7592L25.1254 20.9987L25.4304 21.581L25.1254 22.0602L25.5999 22.1972L25.5321 22.8477H24.7864L23.4984 23.5667L23.0578 23.2928L22.0072 23.3956L22.2105 24.5254L21.6681 25.1759L21.2614 25.2444L20.9225 26.2715L20.3124 26.5797L19.9735 26.4428L19.5329 27.1961L19.3973 28.2574L18.7533 28.7367L17.6009 27.9835L17.4654 27.333L16.8892 27.0933L17.2619 27.3672L16.7197 27.7097L16.5163 27.4015L16.5501 27.9492L16.2112 28.1205L16.1773 28.9079L15.8046 29.0449L15.6011 29.49L15.4317 29.3187L15.4655 29.1133L14.7877 28.9422L14.5842 28.4287L13.4996 28.9422L12.9234 29.8666L12.7201 29.5243L11.2966 28.771L10.4831 28.9422L10.2798 28.5656L10.3137 29.1133L10.1102 29.5243H9.83911V29.0449L9.16134 29.1133L8.55117 28.8738L8.44941 29.0449L8.55117 29.5243L8.31386 29.8323L7.53433 29.6269L7.90719 29.49L7.46655 29.0449L7.90719 28.9422V27.9151L8.28006 27.7438L7.941 27.6069L8.44941 27.1618L8.1445 26.7166L8.44941 26.2374L8.65292 26.3743L8.85625 26.1004L8.95783 26.2374L9.43245 25.3471L9.39847 25.1074L10.0424 24.902L10.0086 24.3543L10.8899 23.0874L10.6864 22.2315L10.7882 21.6494L10.1102 20.5195L10.4493 19.9033L10.3815 19.0815L10.8559 18.8418L11.2288 2.3045L11.6017 2.68112L11.771 2.50992L11.805 2.88656L12.483 3.02351L13.7369 2.68112L14.7538 2.1333L25.3626 2.16753V2.50992Z" fill="#6C6051"/>
</svg>
