<svg width="32" height="32" viewBox="0 0 32 32" fill="none" xmlns="http://www.w3.org/2000/svg">
<path d="M27.7008 12.1422V12.4142L28.5431 12.9581L28.7237 13.6533L29.7763 14.4391L29.8666 14.8319L29.7162 16.0408L29.2048 16.4942L29.0846 17.3705L28.7237 17.7634L27.5506 18.3075L26.197 18.5191L25.8961 19.6675L26.5279 20.2417L26.6782 21.0578L26.0465 21.8436L25.7458 22.8711L24.6628 23.5057L24.8133 24.5332L24.3019 24.5031L23.2191 23.2943L13.1726 23.5965L5.44204 23.3547V22.992L5.08109 22.5689L5.26157 21.632L5.02093 20.6346L5.17133 19.9999L4.87055 19.7883L5.14126 19.184L4.69005 19.0632L4.96078 18.3075L4.59982 18.1866V17.8542L4.14863 17.7634L4.29903 16.192L3.99823 15.6781V15.1643L3.21617 14.0159L3.0056 12.2631L2.67472 12.1119L2.49425 11.2657L2.1333 10.7519L2.94545 8.57599L2.79505 8.06205L2.4341 7.91106L2.64465 7.12526L2.4341 6.3999L13.9846 6.55107L24.8734 6.43021L25.1742 7.27643L25.6555 7.51816L25.2645 8.42482L25.7458 10.6007L26.0465 10.9635L27.4001 11.2657L27.7008 12.1422Z" fill="#6C6051"/>
</svg>
