<svg width="32" height="32" viewBox="0 0 32 32" fill="none" xmlns="http://www.w3.org/2000/svg">
<path d="M2.44667 22.1391H2.1333V21.8261H2.44667V22.1391ZM20.2043 11.0054L20.9356 10.9013L21.3795 11.2402L21.6929 12.1527L22.9725 12.4396L23.4947 12.9611L24.1737 12.6482L24.9571 13.1175L25.5317 13.0393L25.9495 12.596L26.4717 12.4656L26.7068 13.2218L27.5164 13.8997L27.5686 14.708L27.3335 15.0991L28.2475 16.6375L29.2399 17.7326L29.8666 17.889L28.4564 19.0624L27.3074 19.7403L26.6284 20.7833L25.9495 21.0439L25.7144 21.5134L23.4947 22.2955L8.50521 21.8001L7.64339 21.5134L7.74791 22.3998L2.65559 22.1391L2.89061 21.5394L3.43902 21.8261L3.75239 21.1223L3.83072 20.1314L3.67404 19.6099L4.09186 19.1406L4.77084 18.9841L6.18102 19.7403L6.38992 19.4534L6.18102 18.6713L6.23324 18.2802L7.74791 17.889L7.51287 17.1068L7.98295 16.4811L8.29634 16.5853L8.45303 16.3507L8.40069 15.9334L8.84459 16.2203L9.2625 16.0899L9.36702 16.4289L9.54971 16.2985V15.777L9.73258 16.0899L10.307 15.9334L11.2993 16.6375L11.6651 16.0899L12.4224 15.777L13.0751 16.4289L13.4407 16.0118V15.5944L13.7281 15.4641L13.7019 15.1513H14.0936L13.9631 14.9166L14.3025 15.0991L14.407 15.5163L15.1122 15.9334L15.5561 15.6988L15.9216 14.5776L16.5744 14.4212L16.8618 13.7432L17.4624 13.326L17.3579 12.57L18.0368 12.4656L18.2718 12.7003L19.1598 12.257L19.5776 12.3352L19.7343 11.8137L19.3949 11.7095L19.5776 11.4488L19.3949 11.0836L19.891 10.6665L20.2043 11.0054Z" fill="#6C6051"/>
</svg>
