<svg width="32" height="32" viewBox="0 0 32 32" fill="none" xmlns="http://www.w3.org/2000/svg">
<path d="M18.5438 28.0957H18.7608L18.916 28.1598H18.7298L18.5438 28.0957ZM18.5438 28.0957H18.4818H18.5438ZM20.1258 27.9998L20.0017 28.0957L19.5675 28.2237H19.4744L20.1258 27.9998ZM21.4288 28.0957H21.1495L20.8703 27.9677L21.1806 27.9998L21.4288 28.0957ZM22.0802 27.9677L21.7701 28.0957L21.925 27.8718L22.0802 27.9677ZM21.1806 26.9437L21.1495 27.0397L21.1806 26.8157H21.2736L21.1806 26.9437ZM23.5072 27.0397V26.9117L23.7864 26.6878L23.9106 26.8157L23.5072 27.0397ZM24.0965 26.5598L23.9726 26.6878L23.9416 26.6237L24.0655 26.5598H24.0965ZM27.9123 25.2478L27.7572 25.3117L28.0364 25.0877V25.2478H27.9123ZM23.0108 25.2157L23.5072 25.3757L23.5693 25.5678L23.0108 25.3757V25.2157ZM28.4086 24.9918L28.6257 24.6718L28.5016 24.9277L28.4086 24.9918ZM29.0911 24.2237L29.0601 24.2878L29.0911 24.1917V24.2237ZM13.9526 25.5037H13.7354L12.6806 24.7997L13.2701 24.4477L14.3869 24.8318L13.9526 25.5037ZM29.3083 23.9357L29.1842 23.9998L29.4943 23.5198L29.4633 23.6477L29.3083 23.9357ZM26.5783 23.4557V23.6477L26.4232 23.4557L26.2681 23.6477L26.3611 23.2318L26.5783 23.4557ZM27.0748 23.1997L27.3848 23.1038V23.4557L27.0437 23.2318L27.0748 23.1997ZM27.3848 22.4637V22.3678L27.602 22.3357V22.4637H27.3848ZM27.1058 22.5278H27.0748L27.3848 22.1118L27.2607 22.3357L27.1058 22.5278ZM29.8356 23.1038L29.6184 23.3918L29.8356 22.3357L29.4943 21.5677L29.8356 21.9838L29.8666 22.4637L29.8356 23.1038ZM26.5473 21.1517V21.1837L26.4852 21.1517L26.5473 21.0878V21.1517ZM27.6331 21.4078L27.8502 21.5997L27.6331 21.7597L27.4779 21.5677L26.9506 21.5997L27.8502 20.9278L27.4779 21.3117L27.6331 21.4078ZM4.36686 23.6477L3.62234 23.7118L2.93986 24.0317L2.69169 23.5198L2.75373 23.3277L3.21906 23.2318L3.43621 22.8478L3.25009 22.2718L3.68437 21.7277L3.74643 20.5118L3.5603 19.8717L3.80846 19.2318L3.62234 18.6237L4.52197 17.0878L4.73912 16.2238L4.52197 15.8397L4.89422 15.6478L4.61504 15.2957L4.67707 14.7518L4.39788 14.6556L4.02561 13.8878L4.1497 13.5357L3.62234 12.8958L3.74643 12.6396L3.25009 12.1918L3.21906 10.9116L2.1333 9.56776L2.25739 3.19971H17.0547L17.0857 3.4557L17.5511 3.77571L17.0857 4.7357L17.613 5.05571L17.0857 5.40772L17.458 5.95171V6.62371L18.4197 7.64769L17.8302 8.60764L17.4891 8.63967V9.47164L16.1551 10.6557L15.7828 12.2877L15.2865 12.7358L15.4417 13.3118L15.2865 14.0796L14.666 14.2078L15.0693 15.4878L14.635 15.9038L24.7481 15.7758L24.1896 17.7597L24.4689 18.4637L25.1513 19.2318L25.7408 20.6398L25.989 20.7998L25.6477 21.0237V20.8637L25.0273 20.9917L24.8412 20.5757L23.5693 20.3838L23.1659 19.8078L22.4525 19.6478L21.3047 20.7677L21.1495 21.1837L21.4288 21.5997L22.7007 21.9518L23.5382 21.7597L24.0965 21.1517L24.593 21.4078L24.8722 20.9917V21.4078L25.2133 21.1517L25.0273 21.0237H25.2444L25.3685 21.1517L24.9963 21.8238L24.593 21.7277L24.3448 21.9838L24.4689 22.3678L25.0892 22.3357L24.9963 22.5278L25.2754 22.8478L25.6477 22.7197L25.8028 21.9838L26.2681 21.5677L26.5783 21.7597L26.8576 21.6958L26.4232 22.1437L26.8576 22.3357L26.5473 22.4637L26.6714 22.6558L26.8576 22.5278L26.7335 22.7197H27.0748L26.8576 23.0397L27.0437 23.3277L26.6714 23.4877L26.2681 23.0717L26.02 23.5198L25.7408 23.7118L25.7718 23.9998H26.1131L26.2991 24.3517L25.1513 23.8717L25.6167 24.4158L24.8722 24.3517L25.2754 25.0237L26.144 25.3757L26.1131 25.7917H27.1058L26.9196 25.9838L27.4779 26.0797L27.6331 26.3038L27.9123 26.0797L28.3775 26.5598L28.1915 26.8157L28.7809 26.9117L28.936 27.1358L28.5016 27.2638L28.905 27.2958L28.6257 27.7118L28.5016 27.4558L28.5327 27.8077L28.4086 27.6797L28.2536 27.9998L28.3155 28.2557L27.6331 27.6157V27.8718L27.3848 27.9998L26.8265 28.7997L27.509 27.2958L27.3848 27.4558L27.2607 27.1358V27.5518L26.9506 27.8077L26.3611 26.8157L26.5473 26.7517H25.7408L25.6167 26.2077L25.2754 26.3677H24.5309L24.9343 26.0797L24.8412 25.6958L24.4689 25.6317L24.593 25.3757H24.3448L24.3137 25.5678L23.9416 25.5037L23.0108 24.9918L22.8558 25.0877L22.6076 24.7357L22.4525 25.1518L23.4141 25.6958V26.3038L23.3521 26.1757L23.5382 26.4957L23.1039 26.6237L23.1659 26.9437H23.3521L23.0108 27.4558L22.3284 27.8718L22.2353 26.7517L22.0491 26.9437L21.7701 26.4957L21.5218 26.9117L21.1806 26.1757L20.9944 26.6237L20.374 26.4957L20.4671 27.0397L20.2499 26.9437L20.1258 27.6157L20.0948 27.4238L19.5365 27.8077L19.2883 27.7118L19.4434 27.4238L19.1331 27.2958L18.916 27.6797L18.2335 27.3917L18.1715 27.0717L17.8302 27.2958L16.7134 26.9117L16.5272 26.6878L16.4343 26.3677L16.6824 26.4957L17.0547 26.1118L17.0857 26.3357L17.365 26.3677L17.458 26.9117L17.613 26.8157V26.3677L16.8375 25.5678L16.9616 24.6718H16.8375L16.6824 25.5037L15.9689 25.2478V24.9918L15.2245 25.1518V24.4477H14.7901V23.8078L13.6113 23.9998L13.6423 23.3277H12.9599L12.1223 23.9357V23.7118L11.781 23.7757L11.9362 24.1917L12.3393 24.0317L12.1223 24.2237L12.3083 24.6718L12.7117 24.5758L12.5255 24.8318L11.1607 25.1518L9.05121 24.7357L6.38326 23.6157L4.36686 23.6477Z" fill="#6C6051"/>
</svg>
