<svg width="32" height="32" viewBox="0 0 32 32" fill="none" xmlns="http://www.w3.org/2000/svg">
<path d="M17.598 23.883L17.2308 23.7485L17.1573 23.3788L17.708 23.5804L17.598 23.883ZM18.5158 22.6055L18.3322 22.74L18.5158 23.0761H18.112L18.2954 22.3367L18.5158 22.6055ZM20.6086 22.1013H20.0212L20.1679 22.471L19.9477 22.6055L19.4336 22.1013L19.7641 21.3953L20.2046 21.261L20.7186 21.8323L20.6086 22.1013ZM16.9004 3.61241L17.194 3.88133L18.993 3.04094L19.4336 3.20903L20.0212 2.73839L21.4529 3.61241L22.4076 4.48644L22.6278 11.9828L22.4444 13.2266L23.5091 13.8317L24.3534 13.9999V14.336L23.9863 14.6384L24.3534 15.3444L24.2067 16.084L24.8675 16.7228L25.1612 16.4538L25.7119 16.5883L26.336 17.8321L26.2259 18.0337L25.9322 17.9664V18.3363L25.5282 18.2018L25.7486 18.8406L26.1891 18.37L26.336 18.7397L26.2259 18.3363L26.6666 18.7733L25.6751 19.8826L25.2346 19.849L25.1612 20.0171L24.9775 19.4457L24.5737 19.5465L24.8308 20.0171L24.5737 20.2524L24.3901 19.849L24.3534 20.1851L23.7659 19.9499L23.6192 20.6895L23.252 20.4541L22.9951 20.8911L22.9583 20.2524L22.6278 20.6895V20.2524L22.4444 20.3532L22.1138 21.4962L22.0771 20.9247L21.9302 21.4626L21.7468 20.8911L21.4529 21.0592L21.7468 21.4962L21.3428 22.0004L21.0491 21.0256L20.8288 20.8911L20.7186 21.1265L20.6086 20.6895L20.5352 21.0592L20.1312 20.6895L20.2046 21.1937L19.7641 21.0592L19.507 21.4962L19.4336 20.9247H19.1767L19.2869 21.5298L19.1767 21.3953L18.7729 21.4626L18.9563 22.5383L17.9284 22.0004L17.5246 22.0677L17.598 21.7316L18.1487 21.4626L17.9284 21.261L17.5246 21.4962L17.8549 20.6559L17.598 20.4541V21.0256L16.68 21.3953L16.9371 22.0004L16.313 23.177L16.3497 23.6812L15.6521 24.051V24.3872L15.2848 24.4881L15.4685 23.9839L14.9912 24.3872L15.1381 24.1855H14.7341V23.6812L14.0732 25.0932L13.8898 24.6897V25.0932L13.9632 23.9166L13.6327 24.3872L13.596 25.2275V24.9923L13.3024 24.9251L13.4124 24.5217L13.3024 24.32L13.4124 23.883L12.7517 24.7569L12.8616 25.1268L13.0453 24.9923L12.7517 25.5638L12.7149 23.6812L12.2008 24.1855L12.2375 24.32L12.4578 24.1518L12.6782 25.7318L12.4578 26.0008L12.2008 24.9251V25.2948L11.6133 25.7318L11.8704 25.0932L11.3932 25.5974L11.797 24.9587L11.5033 25.0932L11.6501 24.9251L10.6221 25.4966L10.3285 26.1353L10.0714 26.2025L10.4752 26.4041V26.7404L9.81431 26.942L9.63087 27.3791L9.85104 27.4798L8.78635 28.2194L8.05202 29.833L7.7584 29.6985L7.57476 29.8666L7.24442 29.2952L7.31768 28.7909L6.62026 27.8161L6.3999 15.6471L6.87715 15.378L7.31768 16.1177L7.7584 14.9074L8.23565 15.1428L8.60272 15.042L8.19892 14.4032L8.85981 13.462L9.77758 13.0921V12.5879L10.5119 11.7812L10.2918 11.4449L10.3285 10.8398L10.6221 10.4365L10.4752 9.96589L10.9892 9.09177L11.5401 8.65479L11.797 6.87319L15.5419 2.1333L16.3864 2.30138L16.4964 3.30987L16.9004 3.61241Z" fill="#6C6051"/>
</svg>
