<svg width="32" height="32" viewBox="0 0 32 32" fill="none" xmlns="http://www.w3.org/2000/svg">
<path d="M23.917 22.9195L23.8209 23.243L23.5571 23.0936L23.845 22.9195L23.6771 22.4962L23.917 22.9195ZM23.8209 21.4758H23.5091L23.3651 21.3266L23.6771 21.2021L23.8209 21.4758ZM28.6192 22.4962L29.027 21.451L29.5787 20.331L28.979 22.1976L28.6192 22.4962ZM29.7228 19.9327L29.6028 20.0075L29.7947 19.0866H29.8666L29.7228 19.9327ZM3.76468 8.53369L25.0925 8.68308L25.7162 19.1612L29.6028 19.0866L29.4349 19.1612L29.4588 19.3603H29.027L29.3149 19.5096L29.2908 19.8581L29.5787 19.9576L29.4588 20.1816L29.1229 20.8536L28.883 20.9532L28.979 20.7042L28.6431 20.8536L28.4512 21.8741L27.9714 22.1478L27.8034 22.6456L26.292 22.9195L26.1481 23.1682L25.2844 23.1435L24.7805 23.467L24.8526 22.9442L24.5886 22.9941L25.4524 21.9487L24.7805 22.1478L25.3083 21.6501L25.1644 21.6252L24.2768 21.7995L24.3248 21.3266L24.9965 21.003L24.4928 20.7042L24.7805 19.5096L24.1088 20.8536L23.845 20.3558L24.1328 20.0075L24.1088 19.8581L23.917 19.9576L23.6771 20.3558V21.003L22.5494 19.659L22.4535 20.331L21.8058 19.0616L22.0457 18.8127L22.2136 19.0866L22.2856 18.6386L22.7173 18.2155L22.5735 18.1158L22.0457 18.315L22.2616 18.0163L22.0696 17.7923L22.8373 17.6927V17.9666L23.5571 18.1906L24.0369 17.867L24.1088 17.4937L23.701 17.9666L23.3651 17.7923L23.2692 17.4937L22.8614 17.5435L23.1252 17.2697L22.8373 17.3443L22.7173 16.9461L22.5494 17.195L22.4294 16.5231L22.0696 16.9461V16.3737L21.9016 17.1701L21.6378 17.2697L22.0696 15.9755L22.6934 16.5231L23.1013 16.4981L23.1252 16.1746L22.8853 16.3737L22.6934 16.1746L23.1252 15.6518L22.8614 15.5026V15.3283L22.6934 15.4777V15.1292L22.2856 14.8803L21.7578 15.3532L21.8058 15.7763L21.6139 15.6518L21.8058 14.4572L22.2856 14.7061L22.7173 14.6563V14.2083L23.3651 13.5115L22.6934 13.6607L22.4535 14.3826L22.1176 13.3871L22.6934 12.0431L23.0293 11.6448L24.7566 11.5701L23.6771 11.3711L24.1808 10.6991L24.7566 10.8235L24.4448 10.4003L24.7805 9.80308L23.701 10.7737L24.1328 9.65369L23.8209 9.95229L23.2692 10.0021L23.0293 10.5497L23.3651 10.8483L22.4535 11.6448L22.2856 10.6991L22.1176 11.5203L22.2616 11.8191L22.0457 12.0678L21.8058 11.3711L21.2539 11.3958L21.7097 11.7195L21.4698 12.0678L21.0861 12.0431L21.2539 12.5158L20.7982 12.0678L21.0381 12.5158L21.3979 12.6901L21.158 12.9391L20.2224 12.3666L19.9584 12.5158L20.7982 13.3621L20.9661 13.2377L21.23 14.1337L20.6302 13.9595L21.3019 14.5071L20.942 14.7061L20.4142 14.0341L20.2463 14.1835L21.0381 15.2287L20.4142 14.9798L20.8221 15.5026L20.4142 15.6271L20.4862 15.9755H20.8221L20.3903 16.6723L20.6541 17.0207V18.4643L21.3979 19.5096L21.4698 20.0075L21.0381 20.107L19.8384 18.8875L19.5505 17.3443L19.5985 18.4892L19.9825 19.4847L20.6541 19.9327L20.9661 20.4306H21.4459L21.3979 20.9532L21.8058 21.6252L21.9016 22.4962L21.2539 22.0482L20.9661 21.2021L20.942 21.7995L20.6782 21.6002L20.6302 21.8741L19.9584 20.9532H19.0227L18.687 19.9576L18.3511 19.659L18.591 20.4306L18.567 20.6296L18.2791 20.5301L17.3674 18.9621L17.1036 19.5096L16.9356 19.0866L16.6716 19.7336L16.1438 19.7835L15.952 19.0866L16.1438 18.3398L16.5278 18.1906L16.4558 17.9666L16.7916 17.8172L16.9595 17.3443L17.5114 17.0207L17.4634 16.3238L18.1831 15.6271L17.3435 14.7061L16.9356 15.2038L16.1199 14.8057L15.88 14.2831L14.7764 13.9843L14.3926 13.3871L14.7284 12.9391L14.6565 12.6652L14.0806 12.2172L12.9292 11.7195L12.9772 11.1968L12.6172 10.9728L12.8332 10.5497H12.5213L12.4253 10.2012L12.3054 10.3755L12.1615 10.0021L12.4253 9.85276L12.3295 9.65369L11.6096 9.67861L10.554 8.85723L10.2902 8.8323L9.71438 9.37983L8.73071 9.50429L8.89867 9.67861L8.58685 9.80308L8.73071 9.95229L8.49082 10.2012H7.81915L6.76352 9.80308L6.85948 9.50429L6.66756 9.25555L6.42765 9.85276L5.44402 10.7737L4.94023 10.5497L4.60436 10.6741L3.38082 11.9932L2.1333 12.7897L2.30124 8.53369H3.76468Z" fill="#6C6051"/>
</svg>
