<svg width="32" height="32" viewBox="0 0 32 32" fill="none" xmlns="http://www.w3.org/2000/svg">
<path d="M29.1798 22.0624L29.623 23.2721L28.8254 23.4666L27.4298 23.1425L29.0027 22.8616L29.2021 22.4511L28.7146 22.8616L29.0691 22.192L28.9362 21.9112L29.1798 22.0624ZM25.7018 22.2999L25.6352 22.3648L25.2586 22.0406L25.6352 21.6086L25.7018 22.2999ZM24.5276 21.155L24.4612 21.4574L24.7934 21.1981L24.9263 21.479L24.6384 21.6519L25.1257 21.8031L25.1923 22.3648L23.9073 22.4296L23.0876 22.8616L22.5558 22.4296L23.2426 22.2351L23.996 21.3495L24.5276 21.155ZM29.3127 20.2692L29.1356 20.3125L29.4901 19.1891L29.623 19.4267L29.3127 20.2692ZM22.1792 6.52955L22.6002 6.42145L22.6224 7.00486H22.2014L22.7995 7.47999L23.0876 8.14977L22.6224 7.80411V8.14977L23.3092 8.53872L23.0876 8.58181L23.1763 8.77628L23.6415 8.8411L23.7965 9.05712V8.66818L24.2397 8.38733L24.4612 8.9923L23.5971 9.55398L22.1792 10.0724L22.0463 10.3532L22.3344 10.202L22.445 10.4829L21.8248 10.7854L22.0463 11.1742L21.4703 11.1094L21.4924 11.9304L21.1603 11.6928L21.2932 11.9304L20.8943 11.8007L20.7614 11.9304L21.0716 12.1248L20.8279 12.2112L20.8943 12.4705L21.2711 12.4057L21.1603 12.6865L21.4703 12.7729L21.4924 13.1401L22.2679 12.9456L22.0021 12.3408L23.2426 13.2049L24.4612 15.4949L24.0623 15.5382L24.2618 15.4949L23.996 14.9763L23.8629 15.5382H23.5971L24.2397 16.1214L24.8378 16.3159L24.9707 17.5905L25.1923 17.8065L25.9897 18.3033L27.0088 18.4545L26.5878 18.6274L27.2967 18.5193L29.0691 17.7849L29.3127 17.5256L29.0691 16.5535L29.3351 16.4886L28.9362 16.2293L28.7146 16.7262L28.4046 15.106L27.8728 14.9548L27.7399 15.3437L27.1638 14.89L27.3633 14.5876H27.8951L28.7146 15.0844L29.3351 15.819L29.8666 17.2663L29.4901 17.0936L29.3793 17.7416H29.8003L29.7337 19.0162L27.8285 19.1891L27.0975 19.7291L27.1417 19.3188L26.1005 19.6643L25.8789 19.4267L25.1923 20.2692L23.73 20.5933L24.0402 20.0747L23.996 19.0162L24.2397 18.5193L24.0623 18.3682L23.996 18.6274L23.5084 18.3033V18.9083H23.3092L23.0876 19.3619L22.7995 19.2322L22.445 19.5348L22.4895 19.9236L22.0021 19.5131L21.6255 20.5716L20.8943 20.8094L20.6064 20.7876L20.8943 20.5716L20.7393 20.2692L20.6064 20.5716L20.2961 20.4637L20.4069 20.6582L20.2298 20.8094L20.1411 19.2322L19.6759 19.081L20.2961 17.7849L19.8088 18.5193H19.4322L19.2993 18.7569L18.5683 18.0009L18.4354 16.8343L18.1917 16.7262L18.0586 15.4949L7.13676 15.2789L7.07041 15.4949L6.73806 15.5382V15.2789L1.31035 14.9548L1.06665 14.6955L3.25988 7.67446L18.7012 8.34424L19.5209 7.80411L20.0082 7.13432L20.5398 7.09123L21.6919 6.3999L22.1792 6.52955Z" fill="#6C6051"/>
</svg>
