<svg width="32" height="32" viewBox="0 0 32 32" fill="none" xmlns="http://www.w3.org/2000/svg">
<path d="M27.333 27.9493V27.333V27.9493ZM17.2669 14.0826H16.6504V13.4664H17.2669V14.0826ZM18.5336 11.5832V11.0012V10.3505V11.5832ZM21.6494 10.3505L22.3341 11.0012H22.9505L23.5667 11.5832H24.2172L26.1345 12.8157V14.0826V13.4664L25.4499 14.0826L26.1345 14.7331V17.2669L25.4499 17.9173V18.5336L24.2172 19.1842V20.4167L25.4499 20.9988V20.4167H26.1345V19.1842H26.7166L27.333 18.5336L28.5998 19.1842V19.7663L29.8666 23.5325L29.2504 25.4499V26.1003V25.4499H28.5998L27.9493 26.1003V26.6824L27.333 27.333V27.9493V28.5998L26.1345 29.8666H21.6494H14.0826L14.7331 29.2162L15.3837 27.333L16 25.4499V23.5325V22.9161V22.2999V22.9161L14.7331 20.9988L15.3837 19.7663V18.5336L16 17.2669V16L16.6504 15.3495V14.7331L17.2669 14.0826V14.7331L18.5336 13.4664L17.9173 14.7331L18.5336 15.3495V14.0826V15.3495L19.1842 14.0826V12.8157L20.4167 12.2337L19.7663 11.5832L20.4167 11.0012V10.3505H21.6494ZM22.3341 10.3505V11.0012L21.6494 10.3505H22.3341ZM25.4499 9.04945V9.66588L24.2172 9.04945H24.8678H25.4499ZM23.5667 8.43319L22.9505 7.78273H23.5667V8.43319ZM23.5667 7.78273H22.9505V7.13216V6.5501H23.5667L22.9505 7.13216L23.5667 7.78273ZM14.7331 7.13216V6.5501V7.13216ZM8.46739 4.05066L9.04945 4.66697L8.46739 5.28326H9.04945L9.70008 4.66697L9.04945 5.28326L9.70008 4.66697H11.0012L11.5832 5.28326L12.2679 6.5501L12.8499 7.13216L13.4664 6.5501L14.0826 7.13216H14.7331L16.6504 5.86532H18.5336L20.4167 5.28326V7.13216H20.9988H21.6494H22.3341L22.9505 7.78273V8.43319H23.5667V9.04945H24.2172V9.66588L22.3341 9.04945L21.6494 9.66588V9.04945L20.9988 10.3505L20.4167 9.04945H18.5336L17.9173 9.66588H17.2669H16V10.3505H15.3837L14.7331 11.5832V11.0012V10.3505V9.66588L14.0826 10.3505V11.0012H13.4664V9.66588V11.0012L11.5832 13.4664H11.0012V12.2337H10.3505L11.0012 11.0012L9.70008 10.3505V9.66588L8.46739 9.04945H7.13214L6.5501 8.43319L3.40014 7.13216L2.74959 6.5501H2.1333L4.05066 5.28326H5.89956L6.5501 4.05066H7.13214L8.46739 3.40014V4.05066ZM11.0012 2.1333L10.3505 2.74959L9.70008 3.40014L9.04945 4.66697L8.46739 4.05066H9.04945V3.40014V4.05066L8.46739 3.40014L9.70008 2.1333H11.0012Z" fill="#6C6051"/>
</svg>
