<svg width="32" height="32" viewBox="0 0 32 32" fill="none" xmlns="http://www.w3.org/2000/svg">
<path d="M10.2083 4.39354L11.0762 3.94843L11.5102 4.46202H11.9109V4.87289L12.2112 5.14679L14.4478 5.62614L14.815 6.13971L15.616 6.10548L15.783 5.83156L16.3839 5.66038L17.2851 5.76309L18.2198 6.10548L18.0528 6.4821L18.687 6.55058L19.0877 7.54352L19.288 7.44074L19.3547 7.06417L19.9889 6.96145L20.256 7.47506L21.0237 7.71478L21.1573 8.12558L21.4911 8.29683H22.4925L23.6608 7.44074L24.0947 8.15972L25.9641 7.88586L26.6318 8.43376L27.0323 8.29683L27.7333 8.39944L23.9279 10.3169L21.8583 12.7135L20.0224 14.22L19.6217 14.9048H19.4215V17.6438L18.1196 18.5341L17.4186 19.5271L17.5188 20.1091L17.9528 20.1433L18.2198 20.7938L17.9528 21.5128V22.1635L17.7858 22.4715L17.9528 23.122L17.7524 23.8753L18.5203 24.6286L19.1545 24.7997L19.4549 25.2792L20.1225 25.4504L21.5913 27.1281L22.4925 27.402L22.8263 27.9497L23.0266 29.8328L14.2475 29.8671L5.56845 29.6617L5.90226 21.102L5.63522 20.6912L5.16788 20.4515L4.70055 19.6982L5.63522 18.5684L5.76874 17.0961L5.16788 14.7679L5.26802 13.4325L5.10113 13.0902L5.16788 10.2141L4.43351 7.68046V5.83156L4.60041 5.28374L4.2666 3.57181L10.1083 3.77725L10.2083 4.39354ZM10.7759 2.13379L11.2432 2.16802L11.3099 2.44194L11.1764 2.88704L10.7759 3.09248V2.13379Z" fill="#6C6051"/>
</svg>
