<svg width="32" height="32" viewBox="0 0 32 32" fill="none" xmlns="http://www.w3.org/2000/svg">
<path d="M20.0318 5.02877L19.6652 6.12591L19.9401 7.8021L20.3067 8.625L22.689 11.0325L23.025 12.526L23.3914 13.1354L23.7275 13.105L24.1857 12.7088L25.4685 13.4706L24.4604 16.0916L24.5216 16.7621L25.5294 17.8288L26.3542 18.164L28.0647 19.6879V20.3583L28.5227 21.1812L28.0647 21.9125L28.7671 23.0706L29.1642 23.3144L29.042 22.9183L29.2863 22.8269L29.6224 23.406H29.8666L29.8361 24.5944L29.5001 25.5698L28.7976 25.2954L28.3701 26.2402L28.2479 25.6916H27.973L28.1563 26.606L27.6981 26.9106L28.034 27.2764L27.4232 27.3373L27.7898 27.9773L27.3011 28.7698L24.4604 28.8002L24.7353 28.0992L25.7739 27.185L25.8044 26.7279L25.3768 26.0573L5.8596 25.6612L6.59263 11.2764L5.6458 10.9106L5.43199 9.96595L4.57677 9.08212L5.18763 8.10692H5.6458V7.61924L5.34035 7.22306L4.72949 7.37543L3.44667 6.43067L3.23287 5.27258L2.49982 4.81543L2.37764 3.71829L2.1333 3.47448L2.16384 3.2002L9.37212 3.71829H18.81L20.0318 5.02877Z" fill="#6C6051"/>
</svg>
