<svg width="32" height="32" viewBox="0 0 32 32" fill="none" xmlns="http://www.w3.org/2000/svg">
<path d="M20.7374 29.8324H20.7061L20.9256 29.7297L20.7374 29.8324ZM23.1531 29.7297L22.9648 29.8324L22.9021 29.6955L23.1531 29.7297ZM20.2982 29.6269L20.1727 29.8666L19.8902 29.6955L20.2982 29.5585V29.6269ZM22.6511 29.7297L21.6786 29.6269V29.5585H21.9609L22.6511 29.7297ZM23.4354 2.23602H24.1569L24.5334 2.71536L22.9021 20.1086L23.2786 28.9079L22.9648 29.1818L22.4001 28.7025L21.7099 28.9422L20.9256 28.3944L20.6746 28.5656L21.1766 28.6341L19.4824 29.1818L19.0746 28.8053L18.9177 29.0106L19.1061 29.2162L18.604 29.5585L18.5099 29.8666H17.9765L17.506 28.3602L16.9099 27.7096L16.6904 27.0249L17.1609 25.2787L8.53345 25.039L8.90979 24.7993L8.56478 23.5667L9.12946 23.3956L9.31763 22.6766L9.12946 22.1971L9.56863 21.7864L10.008 20.3141L11.2315 19.287L11.1373 18.6021L11.4825 18.5336L12.0785 17.5408L11.1373 16.6848L11.2315 16.1027L10.9176 15.6576L11.357 15.3151L10.9805 14.9044L11.3883 14.0141L10.9805 13.7059V12.9869L11.357 12.6788L11.2315 12.0283L10.9176 11.7886L11.2315 10.9326L10.7608 10.3505L11.0118 10.2821L11.106 9.93964L10.7608 9.73428L11.5765 8.98105L11.5138 8.57016L11.608 8.29623L11.3883 7.9197L12.3608 7.543L12.0785 6.99519L12.3922 6.68705L12.6747 6.24194H12.8315L12.8942 5.76261H13.2707L13.6785 5.48869L13.804 3.77676L14.1492 3.74251L14.306 3.1947L15.0903 2.64688L14.9334 2.1333L23.4354 2.23602Z" fill="#6C6051"/>
</svg>
