<svg width="32" height="32" viewBox="0 0 32 32" fill="none" xmlns="http://www.w3.org/2000/svg">
<path d="M29.6536 18.2648L29.8666 21.2514L21.6158 21.5998H13.152L13.1254 23.1928L12.3803 22.3466L12.0609 22.695L12.1674 22.9936L10.3309 22.894L9.9051 23.1928L9.00004 23.0683L8.84037 23.4665L8.46788 23.1678L8.09519 22.1972L7.45631 21.8488V21.3509L6.84422 20.3803L6.73771 19.4594L6.28528 19.1608L5.48686 19.783L4.95454 19.4594L5.00777 18.8621L5.38038 18.4638L5.16746 17.6674L5.753 16.0745H5.16746L4.95454 15.7759L4.74161 15.9253L3.54392 14.0834L2.6656 13.4362L2.90514 13.3367L2.77207 13.0878L2.79869 12.6398L2.1333 11.6442L2.39946 8.5332L15.7071 9.1057L28.8818 8.73225L29.6536 18.2648Z" fill="#6C6051"/>
</svg>
