<svg width="32" height="32" viewBox="0 0 32 32" fill="none" xmlns="http://www.w3.org/2000/svg">
<path d="M25.6876 12.7907L25.986 12.8451L26.2033 14.1524L27.1257 15.7047V16.7124L27.397 16.7671L27.37 16.9848L27.6413 17.1482L27.56 17.6112L27.8583 17.6928L27.6956 18.0469L27.9127 18.2102L27.994 20.1439L28.537 20.9882L28.754 21.8325L29.3237 22.0503L29.5137 22.8946L29.8666 23.0852L19.2019 23.4665L8.34741 23.3848L8.45605 19.2454L2.1333 18.9729L2.51328 10.6665L10.8984 10.9662H19.4732L20.9929 11.783L21.4815 11.4292L23.2182 11.2928L23.7336 11.7286L25.0633 12.1099L25.2806 12.6546L25.6876 12.7907Z" fill="#6C6051"/>
</svg>
