<svg width="32" height="32" viewBox="0 0 32 32" fill="none" xmlns="http://www.w3.org/2000/svg">
<path d="M20.3154 2.68797L21.4613 20.68L21.2465 22.4826L22.4999 24.0773V24.9786L23.1803 25.8106L23.0729 26.0533L23.4668 25.984V26.1573L22.6789 27.96L21.7478 27.8906L20.5661 28.6533H19.9931L19.5275 29.312L18.7039 29.8666L9.28549 29.5546L8.56926 28.4453L8.53345 27.96L8.85575 26.9893L9.21386 26.608L9.50035 23.9386L9.78684 23.5226L9.89428 20.7493L10.4314 20.1946L10.6463 19.016L11.3984 18.3226L11.6132 17.2826L12.2936 16.312L12.1504 16L12.6518 14.96L12.7592 13.0533L13.2247 12.4293L14.2633 12.36L15.6241 11.2506L16.1971 10.5573L16.3045 9.96797L16.6626 9.79463L15.9822 8.1653L16.9491 6.5013L16.7701 5.39197L17.737 3.1733L17.4505 2.93063L18.4532 2.2373L19.635 2.7573L20.2079 2.1333L20.3154 2.68797Z" fill="#6C6051"/>
</svg>
