<svg width="32" height="32" viewBox="0 0 32 32" fill="none" xmlns="http://www.w3.org/2000/svg">
<path d="M22.0633 25.9998V26.2663L21.4307 26.6663L21.668 26.0531L22.0633 25.9998ZM25.0159 25.8663L24.4359 26.0798L23.856 26.1331L24.6732 25.9463L25.0159 25.8663ZM25.3322 25.9463L24.8315 26.0531V25.9998L26.6241 25.3331L25.3322 25.9463ZM28.4694 23.5998L27.1514 24.7198H27.7577L28.2321 24.1063L28.7067 24.1331L28.733 23.9463L28.9703 24.2131L29.8666 23.8663L26.8085 25.3331L27.125 25.1463L23.3023 26.1331L23.7769 26.2398L22.5643 26.3998L23.1706 26.1331L22.907 25.9463L22.6433 26.0531L22.7224 26.2398L22.2743 26.3463L22.1424 25.9998L22.5643 25.3863L23.1706 25.3331V25.1198L23.2496 25.1998L23.3023 24.8531L23.5396 25.1463L23.645 24.7731L24.1196 24.7998L24.2515 24.5331L24.515 24.7731L24.3832 24.5331L25.0422 24.7198L25.4114 24.4531L27.1514 24.3463L28.1267 23.5463L28.4694 23.5998ZM29.313 22.9863L29.234 22.9331L29.5503 22.7998L29.3657 22.9863H29.313ZM5.40225 14.2663L5.19135 14.533L5.03317 14.3998L5.05953 14.1063L5.40225 14.2663ZM14.6818 10.0263L14.4973 10.1863L14.7346 9.83975V9.99975L14.6818 10.0263ZM15.209 8.61302L15.2883 8.66629L14.9718 8.74629L15.0246 8.66629L15.209 8.61302ZM15.7627 8.31974L15.6046 8.45302L15.3936 8.66629L15.341 8.45302L15.7627 8.31974ZM19.3744 5.33301H24.3832V5.59968L24.3569 7.19974L24.6205 7.99974L24.4886 8.98629L24.1196 9.83975L24.3832 11.1463L24.1986 11.973L24.2515 12.1598L24.6205 11.9198L24.7523 12.2663L24.8315 16.053L24.0142 19.173L23.856 22.9863L24.1196 23.3063L23.2496 23.8663L23.5396 24.3463L22.9333 24.9331L22.986 25.1463L22.5643 25.1998L22.2743 25.6798L22.7224 24.2131L22.5116 22.8263L22.327 23.0663L22.5906 24.3463L19.7961 22.6398L19.6381 22.3198L18.7681 21.9731L18.5308 21.4663L18.5045 20.4531L17.8716 20.1863L17.5816 19.5998L2.1333 18.9863L2.21239 17.733L4.42683 16.3998L4.84864 15.7598L5.40225 15.4663L5.27044 14.533L5.45497 14.1863L4.84864 13.9198L4.875 13.0663L7.30035 12.6398L9.43566 12.9598L9.98929 13.4398L10.7539 13.253L12.0982 13.5463L12.2038 13.2798L12.9684 13.1463L13.9701 12.2663L14.4973 12.3198L14.7873 11.9998L14.8137 11.653L14.7346 11.733L14.471 10.7463L14.6818 10.5063L14.7346 10.7463L15.2883 10.0263L14.7873 10.133L15.0773 9.78629L14.7873 9.65302L14.471 9.8663L14.2864 9.41302L16 8.26629L16.5272 7.27974L18.0299 5.99968L19.3744 5.33301Z" fill="#6C6051"/>
</svg>
