<svg width="32" height="32" viewBox="0 0 32 32" fill="none" xmlns="http://www.w3.org/2000/svg">
<path d="M19.3244 24.3536H18.7326L18.3498 24.1182L19.046 24.3536L19.3244 23.7485H19.8813L19.3244 24.3536ZM20.5428 22.6392L20.1947 22.9082L21.6915 20.2524L21.3783 21.4626L20.5428 22.6392ZM22.6313 8.48683L22.3181 9.32715L21.3783 9.89863V9.32715L20.7865 10.2347L20.1947 11.3441V12.2182L20.7865 12.487H21.3783L22.6313 13.0585L22.875 12.7897L22.6313 12.2182L22.875 12.7897V14.2687L22.3181 16.5546V17.1597L21.9352 19.9835H21.6915L22.3181 17.4622L21.9352 16.79V17.4622L21.3783 17.6976L21.6915 18.0001L21.3783 18.2691L21.6915 18.5715L21.0997 19.9835V20.9247L19.603 22.6392L19.8813 23.2106L19.3244 22.6392H19.046V23.446V23.7485H18.3498V24.3536H18.7326L19.046 24.9251L17.7928 25.4629L18.0712 24.9251V24.6561L17.4794 25.4629H16.9225L16.5745 25.799H17.4794L16.5745 26.6731L16.2959 27.5807H15.739L16.2959 27.8497L15.4258 28.7237V28.9591L14.486 29.6312L13.8942 29.8666V28.7237L14.486 27.8497L14.2074 26.9756H13.3372L12.989 26.6731L12.1537 26.9756L11.8403 26.3705L11.1789 25.4629H10.5871L10.3088 24.9251L10.0302 25.2275L8.53345 23.446V23.2106H8.77719V22.6392L8.53345 22.034L9.71699 19.7145L10.5871 19.4457L12.1537 19.143L12.7107 18.5715L12.4321 18.0001H12.7107L14.2074 16.79L15.739 15.9832L15.9827 15.6807L13.8942 13.3275L13.6504 12.7897H13.3372L12.7107 11.3441L11.8403 11.0416V9.02469L12.1537 8.48683H12.7107L12.989 7.61271L12.4321 6.40255L13.3372 5.56215L14.2074 4.68813L14.7992 2.94008L15.4258 2.36862L16.2959 2.1333L23.4668 6.13363L23.1882 7.04127L22.6313 8.48683Z" fill="#6C6051"/>
</svg>
