<svg width="32" height="32" viewBox="0 0 32 32" fill="none" xmlns="http://www.w3.org/2000/svg">
<path d="M22.2169 21.0318L22.0782 21.3332L21.9164 21.2869L21.9857 21.1709L22.2169 21.0318ZM22.5404 20.0579L22.4249 20.3593L22.3786 20.3826L22.471 20.1043L22.5404 20.0579ZM24.0426 18.7361L23.488 18.9912L23.1413 19.3158L23.3262 19.1071L23.696 18.8057L24.0426 18.7361ZM26.5849 18.226H26.5156L26.215 18.0173L26.4693 18.0869L26.5849 18.226ZM26.0764 18.0173H25.6604L24.8053 18.226L25.4062 18.0173L25.9146 17.9709L26.0764 18.0173ZM26.631 18.3418L26.9777 17.6231L27.5786 16.9738L27.024 17.6695L26.631 18.3418ZM27.7866 16.8578L27.9484 16.5564H28.087L27.7866 16.7651V16.8578ZM28.4569 16.3013L28.1333 16.51L28.2489 16.3478L28.896 15.9999L28.4569 16.3013ZM29.6124 15.8839L29.0116 16.0462L29.7049 15.6057L29.7742 14.5853L29.6124 13.7738L29.8666 14.4926L29.751 15.4434L29.6124 15.8839ZM29.312 13.6114L29.1964 13.5651L28.9653 13.194L29.1964 13.2173L29.312 13.6114ZM28.688 11.7331L28.9653 12.4521L29.6124 13.7505L28.9653 12.8695L29.0577 12.8462L28.6417 11.8027L28.4106 10.8752L28.688 11.7331ZM28.1333 10.8752H28.295L28.3413 11.0608H28.1333L28.0409 10.8752H28.1333ZM15.2373 11.0608L27.9484 10.8752V11.1766L28.1333 11.339V11.4317L28.295 11.5709V11.339L28.711 12.6608L28.1564 11.8027L28.3413 12.3361L27.4862 11.7796L27.9022 12.3592L27.5786 12.4983L27.1857 12.1505L27.3937 12.6375L26.631 12.1969L27.1396 12.6608L26.2844 13.0086L25.9609 12.8462L25.8684 12.3361L25.9609 11.9418L25.776 11.8027L25.7297 12.5448L25.9609 13.0086L25.8684 13.2173L26.7929 13.0549L27.3013 13.2636L27.232 13.1013L27.9484 13.0549V13.7738H27.7404L28.0409 14.1217L27.6942 14.1679L28.0409 14.3303L28.1333 13.4027L28.295 13.2636L28.503 13.426L28.4106 13.2173H28.6417L28.5956 13.0549L28.9653 13.6114V14.3303L28.6417 14.5853L28.503 14.3303L28.087 15.2347L27.6942 15.4897L27.0702 15.281L27.024 15.4897L26.839 15.0491L26.631 15.3274L26.3306 14.9331L26.6773 14.7709L26.1226 14.8404L26.2844 15.3274L24.8516 14.8404L25.152 15.2347L26.6773 15.7912L26.0764 16.2086L26.423 16.1622L26.4693 16.394L25.776 16.9043L24.8053 16.3013L25.2213 16.9505L25.8684 17.2288L26.2382 16.9043L26.5156 17.113L26.423 16.9043L26.6773 16.9505L26.7929 16.5564L26.7697 17.0665L27.1857 16.9043L27.0702 16.7187L27.3476 16.9505L26.631 17.8318L26.2844 17.5304L26.2382 17.9709L26.0764 17.6231L25.776 17.7853L26.0302 17.8782H25.4062L24.8053 18.0869L24.6666 17.7853V18.0869L24.112 18.5505L23.8809 18.4347L24.0889 18.226L23.7422 17.8318L23.904 18.2492L23.696 18.3883L23.904 18.7361L23.3956 18.9448L22.8177 19.5013L22.2169 20.9853L22.263 20.3593L22.0782 20.0114L22.1706 20.7304L21.8702 21.1709L20.807 20.9391L20.2062 21.2869L16.7626 17.6926L13.2266 17.5304L13.2036 17.0665L12.7644 16.4173L12.3716 16.6027V16.3013L8.25769 15.9535L5.96974 16.6723L2.1333 16.5564L2.29507 15.6057L2.98841 15.4897L3.19641 14.9331L3.5893 14.5853L4.8142 14.4695L5.8773 13.7738L6.43197 13.6578L6.77863 13.0549L7.03286 13.194L7.56435 12.6608L7.79558 13.0549L8.90491 12.3361L9.36702 12.5448L9.92169 11.7796L10.4764 11.6404L10.6382 10.6665L15.2373 11.0608Z" fill="#6C6051"/>
</svg>
