<svg width="32" height="32" viewBox="0 0 32 32" fill="none" xmlns="http://www.w3.org/2000/svg">
<path d="M29.8666 12.4501L28.9089 12.9308L29.3478 13.7073L29.1882 14.5578L29.3478 15.0385L28.5498 16.8874L28.4699 18.0708H28.1506L28.2305 18.4774L27.7915 19.254L27.9911 19.6608L27.7915 20.4373L25.557 22.2492L24.6391 22.656L24.28 22.1753H23.9607L23.3622 22.656L23.2026 23.2106H22.5642L22.0854 23.9872V24.5418L21.6463 24.6528L21.9656 25.0225L22.0854 25.7621L21.6463 25.6881L21.2073 26.3168L20.8882 25.4293L20.5291 25.2074L20.17 25.3553L19.1722 27.0193L19.4117 28.3505L18.6536 28.5354L18.3743 29.6448L16.6184 29.8666L15.98 28.9792L15.1421 28.5354L14.6232 27.3152L13.7852 27.574L12.9872 28.3505L11.9895 28.4245L11.6304 27.9808L10.593 27.574L9.91458 27.7958L9.75503 28.1286H9.31602L8.31848 27.0933L7.64005 26.9454L6.92178 27.0193L6.0838 26.6126L5.48524 25.0965L4.52754 24.394L3.41023 24.5788L2.81167 24.0241L2.1333 24.394L2.85157 4.27801L11.2314 4.20406L13.5858 5.05454L14.1844 5.68317L14.8228 5.72014L15.0622 5.3134L16.0199 5.94201L13.7852 6.27481L14.6232 6.57063L15.4213 6.23783L16.5786 6.57063L16.0998 6.08993L16.9377 6.71854L17.5363 6.82947L20.17 5.94201L22.0055 6.01597L24.3997 4.20406L29.5872 2.1333L29.8666 12.4501Z" fill="#6C6051"/>
</svg>
