<svg width="32" height="32" viewBox="0 0 32 32" fill="none" xmlns="http://www.w3.org/2000/svg">
<path d="M29.054 11.6993L29.7583 15.9232L29.8666 22.4001L28.5666 22.016L28.1874 21.6577L27.375 21.2736L26.9146 21.6577H26.454L26.102 21.3248L25.5333 21.7089L24.9916 21.6321L23.9083 22.144L23.7187 22.3487L22.852 21.8113L22.825 21.6321L22.3103 21.8113L21.7416 21.4272L21.254 21.7601L21.0374 22.3232L20.7937 21.6321L20.0624 21.9392L19.3853 21.2736L18.7083 21.7601H18.4374L18.329 21.2736L17.8959 21.1968L17.8416 20.736H17.0292L16.5416 20.9921L16.2166 20.6592L15.7833 20.7616L14.2666 20.3776L14.2396 20.0448L13.6707 19.4817L13.5083 19.84L12.6687 19.7888L11.9374 19.0208H11.6124L11.7207 11.8017L2.1333 11.4688L2.24163 9.6001L15.675 9.98401L29 9.80485L29.054 11.6993Z" fill="#6C6051"/>
</svg>
