<svg width="32" height="32" viewBox="0 0 32 32" fill="none" xmlns="http://www.w3.org/2000/svg">
<path d="M7.52587 6.6687H7.80979L8.53953 7.20631L8.98551 9.04945L10.5263 9.51024L12.067 8.81913L13.77 8.93437L14.216 9.27993L15.0674 9.24151L15.9594 8.81913H17.2568L19.4058 7.9359L21.0277 7.82071L21.3114 7.5519L28.3664 7.35989L28.8124 8.08944L29.5018 8.39675L29.8666 9.2031L28.7313 11.776V12.275L28.1232 13.0431L27.5961 14.6174L27.6771 15.1166L28.407 15.1551L28.7313 15.5774L28.4476 15.8847L28.5692 16.2687L28.2853 17.1519L28.7313 25.4078L16.2837 25.5999L3.1875 25.3312L2.70095 24.7935L2.49822 23.7567L2.66039 22.4127L2.1333 21.5296L2.66039 20.608L2.98477 19.3022L3.14695 19.1872L3.1875 19.5327L3.51186 18.9567L3.75513 19.1487L3.6335 18.6495L3.14695 19.1103L3.59296 17.9582L3.79567 17.5743L4.07951 17.6895L3.87677 17.5359L3.6335 17.6895L4.03896 15.0016L4.20113 14.4639L4.36332 14.5408L4.16059 14.3103L4.32278 13.5808H4.48497L4.32278 13.4655V12.6207L4.68768 11.1615L4.64714 10.3552L4.93097 10.0095L4.76878 9.85596L4.84987 9.39517L4.93097 9.70231L5.13368 9.62548L4.84987 9.27993L5.13368 8.78072L4.93097 8.85754L4.76878 8.43516L4.80933 7.62871L5.01206 7.2447L4.84987 6.3999L5.41752 6.6687L5.45806 6.93751L5.53914 6.78391L5.29587 6.55351L5.57969 6.51509L5.82298 6.5919L6.4717 6.3999L6.79607 6.78391L7.12043 6.8223L7.52587 6.6687Z" fill="#6C6051"/>
</svg>
