<svg width="32" height="32" viewBox="0 0 32 32" fill="none" xmlns="http://www.w3.org/2000/svg">
<path d="M29.7713 13.0668L29.3896 13.2269L28.6582 14.5068L27.7993 15.3708L28.181 16.1388L27.9901 16.6188L27.5767 16.8748V17.2588L27.6084 18.0267L28.1492 18.0907L28.4037 18.9868H28.6582L29.8666 20.4587L28.0856 21.8028L27.9901 22.2509L26.5908 22.8268L25.7957 22.6668L25.2868 22.9228L24.9688 23.4668H23.2195L2.1333 23.3709L2.54675 9.13075L3.94614 8.52279L4.61403 8.01075L4.3914 8.33078L6.07703 7.4668V9.13075H26.6544L27.0361 9.45077L27.1314 9.80271L27.8629 10.1227L28.0537 11.5949L28.4037 12.1707L29.5805 12.5228L29.7713 13.0668Z" fill="#6C6051"/>
</svg>
