<svg width="32" height="32" viewBox="0 0 32 32" fill="none" xmlns="http://www.w3.org/2000/svg">
<path d="M13.8925 29.797L13.2015 29.8671L12.9251 29.6214L12.8215 29.2353L13.0287 28.5331L13.6161 28.2173V27.4098L14.0305 27.5502V28.5682L14.4452 29.4107L13.8925 29.797ZM18.1073 19.8973L17.9345 19.6865L17.9691 18.5632L18.3837 18.1419L18.1073 17.8611L18.4873 16.2462L18.9709 16.527V17.4749L18.6601 19.3004L18.1073 19.8973ZM21.8039 18.7037L21.9076 19.0195L21.1475 18.7738L20.2837 19.8269L19.8347 19.6865L19.2473 20.2131L19.0401 20.0727L19.1783 19.4057L20.1455 18.8439L19.7655 18.0015L20.1455 17.194V16.527L20.8365 15.6844L21.1129 14.526L22.253 13.5431L21.9076 15.2282L21.8039 18.7037ZM24.5332 18.2472L23.0822 19.6514L22.7368 18.5632L22.8748 18.0015L22.4948 15.3686L22.564 13.9994L22.8748 12.9814L24.395 13.5431L24.1186 15.2282L24.395 15.6844L24.5332 18.2472ZM18.5565 6.0305L19.4893 6.20603L19.3511 9.15492L19.8347 9.6815L21.1129 10.6995L21.8039 11.9282L21.7002 12.9111L21.1129 13.4027L20.3529 13.5781L20.1455 12.7707L20.6983 10.6995L20.3529 10.5239L20.1455 11.5771L19.5237 11.2261L19.0401 10.8048L18.6601 9.3305L18.2109 8.4879V10.9102L18.7291 11.5069L18.9365 11.8931L18.3837 13.0166L17.9691 12.5953L17.4508 12.4197L16.8636 12.9814L17.4508 13.2973L17.8308 14.526L17.6926 15.1229L16.898 16.3165L17.4162 17.4749L17.4508 19.0898L17.4162 19.6865L15.9308 22.8811L15.689 22.9864L14.5834 22.6003L13.5123 22.6706L9.50482 24.1099L7.46655 24.496L7.74296 22.179L8.05378 21.477L8.33019 21.3366L8.60659 18.1419L8.572 2.30932L18.28 2.13379L18.5565 6.0305Z" fill="#6C6051"/>
</svg>
