<svg width="32" height="32" viewBox="0 0 32 32" fill="none" xmlns="http://www.w3.org/2000/svg">
<path d="M25.3794 19.7429V19.4811L25.4953 19.3648V19.4811L25.3794 19.7429ZM7.83628 4.38296L15.3921 4.76115L15.4499 5.37205L16.1157 5.05206L16.9552 6.09934L16.9842 7.05933L23.4978 7.23388L29.8666 13.5175L29.6929 13.5757L29.8666 13.8084L28.7666 14.303L27.7533 15.2338L26.6532 16.863L26.3637 18.2593L26.19 17.7066L25.8716 17.5903L26.3059 16.6884L26.1032 16.9211L25.698 17.7066L26.3637 18.5212L26.161 18.8121L25.8716 18.6375V18.9284L25.4953 18.6958L25.7558 19.0448L25.3215 19.3648L25.2058 19.7138L24.5979 19.8594L24.4241 19.5394L24.0478 19.7138L23.8162 20.2666L23.932 20.4121L24.1636 20.2666L24.0478 20.4121L22.6583 21.5466L22.1661 21.2557L22.2529 20.8775H21.9345L22.0502 21.372H21.8188L22.4267 21.6629L22.3688 21.9248L21.9345 22.2738L21.5003 22.3321L21.5871 22.5938L20.6028 22.8849L20.1108 22.4775L20.4292 22.943L19.7054 23.4957L19.5027 23.1465L19.3291 23.5539L18.4316 22.943L18.4896 23.263H17.6501L17.6211 23.4374L18.837 23.5539L18.1712 23.6993L18.9527 23.932L18.4316 24.4266L19.0975 23.9902L18.8948 24.6012L17.8817 25.0375L17.7658 23.6702H17.6211V24.7757L17.1579 24.3684L16.9842 23.4374L16.55 23.0884L16.9552 24.6594L17.6211 25.3865L16.7816 26.1139L17.042 25.4448L16.9842 25.1539L16.3763 26.6666L15.7105 26.2885H15.2762L14.784 25.5611L14.9578 24.6594L14.5525 23.4957L13.3366 22.4775V21.6629L12.7865 20.383L12.6708 19.5975L11.2234 18.7539L11.1654 18.3756L10.7312 18.0266L10.7891 17.7066L10.2969 17.2994L10.239 16.5139L9.51526 15.7866L8.84948 15.5248L8.29945 14.3611L6.56252 13.0229L6.35988 12.412L5.69405 11.5684L4.97032 9.56116L3.89919 9.27026L3.20441 8.4557L2.1333 7.72843L2.42279 6.94297L3.58076 5.72115L5.69405 5.25569L6.07038 4.87751L7.51783 4.55751L7.74944 4.2666L7.83628 4.38296Z" fill="#6C6051"/>
</svg>
