<svg width="32" height="32" viewBox="0 0 32 32" fill="none" xmlns="http://www.w3.org/2000/svg">
<path d="M23.5111 3.55325L29.8666 2.60662L29.728 6.96075L29.1733 7.43376L28.6417 10.7467L28.2026 10.1787L27.0702 13.4916L26.8853 11.8825L26.3306 14.0596L25.9609 13.6808L25.7529 16.4258L25.152 16.8991L24.1582 20.1174L22.864 21.2533L22.4711 22.5783L22.2631 25.2287L21.5929 25.702L21.4773 29.5825L13.7351 29.8666L2.1333 28.3521L2.9653 26.2699L2.82664 22.5783L3.51997 19.9279L3.42752 16.8991L4.16708 15.3846L4.07463 14.0596L4.35197 14.5329L4.23641 12.072L4.55997 10.2733L4.30574 8.56959L4.74486 8.47499L4.53686 7.14995L4.8373 6.48743L4.79108 4.68908L4.99908 5.63541L5.18397 4.68908L9.59819 5.257L9.57508 2.1333L10.2915 2.98533L23.5111 3.55325Z" fill="#6C6051"/>
</svg>
