<svg width="32" height="32" viewBox="0 0 32 32" fill="none" xmlns="http://www.w3.org/2000/svg">
<path d="M21.9729 26.24L21.9129 25.4477L21.9729 25.3866L22.0628 25.3562L22.6031 28.0381L21.9729 26.24ZM22.3031 24.5334L21.9729 25.2953L22.3031 24.2285L22.7232 23.5886L22.423 24.2285L22.3031 24.5334ZM22.9933 22.9791L23.0834 22.9485V23.162L22.7832 23.5886L22.9933 22.9791ZM23.3834 22.7047L23.0834 23.04L23.2935 22.7047L24.0438 22.3694L23.3834 22.7047ZM24.2839 22.0952L24.464 21.9733L24.1338 22.1257L24.2839 22.0952ZM27.4654 19.6267L26.8052 20.2666L27.3153 19.718V19.6267H27.4654ZM15.91 2.1333L15.94 6.94854L16.7203 7.40569H17.1705L17.2606 7.28379L17.7408 7.80191L18.8813 7.98478L19.0614 8.25899L19.8719 7.98478L20.2621 8.59427L20.7722 8.35051L21.2525 8.77713L21.7328 8.4723L21.8527 8.96L22.3031 8.38095L22.6031 8.59427L22.9033 8.4723L23.5635 8.86848L24.374 8.38095L24.6441 8.4723L25.0643 8.28943L25.5146 8.38095L25.7546 8.10657L27.5556 9.05134L28.276 8.96L28.516 12.8915L29.0263 13.3486V13.8667L29.8666 15.1772L29.4165 16.3657L29.5966 17.6152L29.1463 18.2248L29.3264 18.5599L28.9062 18.6819L27.4654 19.6267L27.5556 19.2609L28.0959 19.0476V18.9867L27.3153 19.139L27.4355 18.5599L27.1654 18.7732L26.8052 18.6819L27.1053 19.4438L27.3153 19.6267L26.7151 20.0228V20.3277L26.1748 20.8763L25.0643 21.4247V21.4553L25.5146 21.3029L24.464 21.9733L24.9443 21.4553L24.464 21.6686L24.6441 21.5466L24.524 21.4247L24.1338 21.5466L24.0438 21.3333L23.9537 21.3029L24.0738 21.5466L24.0438 21.6686L23.8937 21.8209L23.9537 21.5466L23.5635 21.4247L23.8937 21.9124L23.7436 22.0952L24.0438 22.1257L23.5635 22.4001L23.2635 22.0952L23.2935 22.6134L23.0233 22.8876L22.9033 22.9485L22.9933 22.5219L22.9033 22.9485L22.7832 22.6743L22.423 22.8876L22.5131 23.2533L22.7832 22.9791L22.423 23.6799L21.6726 23.5886L22.3031 24.0761L21.9129 25.0513L21.6726 25.1429L21.7928 24.7771L21.5225 25.082L21.1925 24.6552L21.4626 25.082L21.1925 25.1429H21.9129L21.6726 25.8132L21.8527 26.0572L21.6726 26.24L22.3031 28.0076L22.5731 28.0381L22.5131 28.2514L22.6031 28.16L22.7232 28.3124L22.3031 28.5258L22.2429 28.8L21.5527 28.2514L20.382 28.1905L18.9114 27.5199L18.311 27.459L18.011 26.4534L17.4707 25.8132L17.3206 24.4419L16.6002 24.0761L16.0599 23.162L15.6098 22.7047L14.7393 20.6019L13.5388 19.4438L13.2987 19.5047L13.0885 18.9867L11.5278 18.8952L11.1676 18.7428L10.9875 18.9867L10.3873 19.0476L10.0271 20.3277L9.39683 21.0285L8.88654 20.9067L6.57544 19.3218L5.58496 16.7924L4.68452 16.2133L2.25335 13.5619L2.1333 13.1352L9.60691 13.4399L9.93711 2.1333H15.91Z" fill="#6C6051"/>
</svg>
