<svg width="32" height="32" viewBox="0 0 32 32" fill="none" xmlns="http://www.w3.org/2000/svg">
<path d="M12.3238 7.7909L12.2863 7.60595L12.3238 7.56903L12.3991 7.67997L12.3238 7.7909ZM13.9024 8.49342L13.6016 7.97585V7.38409L13.9024 7.93875V8.49342ZM13.2634 7.05134L12.9628 6.82947L13.1506 6.75553L13.2634 7.05134ZM7.70103 2.20726L18.6754 2.3182V7.7909L27.1695 7.67997L27.7333 29.6817L16.5332 29.8666L5.33325 29.6817L6.12251 2.1333L7.70103 2.20726ZM11.0083 4.24103L10.3318 4.42593L10.5198 4.6478L10.3318 4.83267L10.6326 5.94201L10.3318 6.20086L10.5198 6.27481L10.7828 5.94201L11.0836 6.27481L11.3466 6.75553L11.3843 7.75398L11.9481 8.1237L12.2863 8.71529L12.5118 8.1237L12.8876 9.41798L13.1506 9.52891L13.8271 9.04809L14.0903 8.49342L14.9171 7.97585L14.1654 7.42118L13.5266 6.3118L13.2634 6.27481L13.6016 5.90503L14.2031 5.94201L14.3909 5.6462H13.4514V5.35037L12.9628 5.27641L13.1506 6.49667L12.8501 6.68157L12.4741 5.4613L11.9481 5.38734L11.5721 5.01757L11.7226 4.24103L11.3843 3.9822L11.0083 4.24103Z" fill="#6C6051"/>
</svg>
