<svg width="32" height="32" viewBox="0 0 32 32" fill="none" xmlns="http://www.w3.org/2000/svg">
<path d="M24.2341 7.4373L23.9014 7.5413L23.8349 8.1653L23.2029 9.03197L21.706 10.2453L20.7081 10.3146L20.1759 11.0773L20.1093 13.1573L19.5438 14.4746L19.7102 14.752L19.0449 15.8613L18.7455 17.04L17.9804 17.872L17.7476 19.1893L17.3152 19.8826L17.1821 22.9333L16.916 23.5226L16.5501 26.4693L16.1509 26.8853L15.8848 28.064L15.9846 28.6186L16.6166 29.8666L9.93054 29.5546L9.63116 28.8613L10.0636 19.8826L9.53137 19.016H9.16546L8.63324 19.6746L8.53345 19.1893L9.09894 17.1093L8.53345 13.712L8.99914 12.048L9.46484 11.4933L9.39831 10.072L9.76422 8.9973L9.06567 6.88263L9.46484 4.90663L9.09894 4.07463L9.46484 3.03463L9.39831 2.27197L24.5334 2.1333L24.3006 2.61863L24.5002 3.55463L23.6686 4.69863L23.469 5.4613L24.2341 7.19463V7.4373Z" fill="#6C6051"/>
</svg>
