<svg width="32" height="32" viewBox="0 0 32 32" fill="none" xmlns="http://www.w3.org/2000/svg">
<path d="M27.8329 22.1657V22.3221H27.8064L27.7008 22.2179L27.8329 22.1657ZM28.1234 19.5061H27.965L28.1498 19.1933V19.4279L28.1234 19.5061ZM28.4139 18.8544L28.3876 18.8022L28.5724 18.5936L28.5197 18.6196L28.4139 18.8544ZM29.2856 16.7162L28.7573 18.2546L28.5724 18.411L28.4139 18.1764L28.2818 18.3588L28.4139 18.411L28.1234 18.6196L27.9385 19.7409L27.8329 19.5583L27.648 19.8711L27.4367 19.1672L27.7008 17.9678L28.0706 17.6809L28.1234 17.1595L28.5197 17.0291L28.2818 16.7683L28.5989 16.3512L29.4704 16.273L29.2856 16.7162ZM29.6025 16.7683L29.4969 16.8465H29.3648L29.8666 16.1426L29.6025 16.7683ZM21.309 11.8143L21.7051 11.1102L22.2597 11.1885L22.6296 11.5275L22.471 11.9185L23.2106 12.2315L23.9237 12.8312V13.457L23.6069 13.6394L23.554 13.9002L23.3427 13.8741L23.1049 14.8389L22.9201 14.7085L23.2106 14.9693L22.973 15.0735L24.0295 14.8389L24.1087 15.0735L23.9237 15.1518L24.32 15.595L25.0067 15.8558L25.4556 15.8296L25.6935 16.3512L26.6178 16.7945V17.1595L26.301 17.0291L26.4329 17.9156L25.9048 17.6549L25.7727 17.8635L24.32 16.0904L23.9237 15.7776L23.6861 15.8296L24.32 16.1426L25.6935 17.9156L26.4858 18.1764L26.1689 18.3588L26.6707 18.4372L26.6178 19.1933L26.1424 18.6718L26.0368 19.1672L26.2745 19.3236L25.984 19.4279L24.8746 18.3588L24.8218 18.4372L25.7198 19.4279L26.2216 19.5583L26.4858 19.8973L26.4066 20.0537L26.6178 20.0799L26.4858 20.4449L26.1424 20.5752L25.3501 19.6105L25.0596 19.7409L24.637 19.1933L24.3728 19.5583L24.135 19.1933L24.0295 19.3757L23.3427 19.115L23.2898 19.2975L23.9237 19.4279L24.1087 19.3236L24.2936 19.5583L25.0596 19.8711L25.2709 19.7409L25.3501 20.3145L25.9576 20.6795L25.7727 21.0706L26.2745 20.9402L26.5386 21.0706L26.4858 20.6795L27.5688 20.8098L28.0706 22.3221L27.648 21.54V22.3221L27.3838 22.1397L27.4367 22.3221L20.7278 22.4003H13.9134L2.1333 21.6964L3.92936 21.201L4.16707 20.8098L4.8274 20.6795L5.51413 19.7409L6.64986 19.1672L7.89126 18.1764L7.97047 18.8544L9.10633 19.5583L9.81942 19.063L10.2949 19.4279L11.4569 19.1672L11.5363 18.8022L11.906 18.9326L12.6191 18.6196L12.8569 18.8022L13.3851 18.4372L13.6229 17.9938L13.4379 17.7331L15.0491 15.3864L15.551 14.0305L15.9208 14.1869L16 14.5781L16.7131 14.8129L17.664 13.0658L18.0866 13.3004L19.5129 11.8143L19.7769 10.667L21.309 11.8143Z" fill="#6C6051"/>
</svg>
