<svg width="32" height="32" viewBox="0 0 32 32" fill="none" xmlns="http://www.w3.org/2000/svg">
<path d="M4.48124 22.121L4.3155 22.0224L4.426 21.6615L4.53648 21.924L4.48124 22.121ZM9.01134 18.1168L8.84563 17.92L9.01134 17.7885L9.12193 17.92L9.01134 18.1168ZM8.45893 17.7885L8.23793 17.4605L8.51422 17.0666L8.45893 17.2635V17.7885ZM10.0058 16.4101L10.2268 16.6071L9.84005 16.8696L9.97819 16.5414L9.89534 16.4758L9.67434 16.8696L9.72963 16.1476L9.89534 15.8194L10.0058 16.4101ZM9.81249 15.2287V15.4257L9.50863 15.2287L9.61905 14.5722L9.81249 15.2287ZM9.26007 12.4716L9.12193 12.7015L9.09419 12.1108L9.12193 12.2091L9.26007 12.4716ZM9.56393 10.3384L9.81249 10.9948L9.50863 10.8636L9.09419 11.3557L9.56393 11.6184L9.67434 12.7999L9.81249 12.2749L10.2268 12.7015L10.1715 13.3579L9.89534 12.8656H9.61905L9.45334 11.8481H9.26007L8.95622 11.3557L9.28763 10.4039L9.56393 10.3384ZM8.67993 9.91178L8.73522 10.2071L8.37607 9.81319L8.56934 9.28819L8.67993 9.91178ZM9.26007 9.41944L9.09419 9.25533L9.12193 9.05835L9.28763 9.28819L9.26007 9.41944ZM8.18263 9.55069L8.23793 9.94443L7.68551 9.7148L7.57493 9.05835L7.85122 8.95997L8.18263 9.55069ZM8.67993 8.36904L9.01134 8.69726L8.79034 9.05835L8.51422 8.43477L8.62463 9.05835L8.40363 9.09122L8.23793 8.86138L8.18263 9.05835L8.12751 8.76299L8.40363 8.36904H8.67993ZM9.50863 8.76299L9.17705 8.36904V8.23779L9.42578 8.56602L9.50863 8.76299ZM8.07222 6.6624L7.90651 6.72813V6.59688H8.12751L8.07222 6.6624ZM28.5131 6.3999L29.1485 22.4821L29.5352 23.1383L29.7009 23.7292L29.5352 24.123L29.8666 24.7137L22.1874 25.0748L21.856 25.3701L20.1711 25.5671L19.8395 25.8953L18.8175 26.125L17.7678 26.7486L16.3314 26.8143L15.337 27.3395L14.4531 27.4707L14.0111 26.9455L12.1327 26.8143L10.3925 27.7332L8.73522 27.208L8.51422 25.1732L7.90651 24.1887L7.40922 23.8276L6.74631 23.9917L6.2491 23.3353H5.66902L5.36517 23.0728L4.75746 23.3681L4.23264 22.9742L3.90116 23.1712L4.14977 20.9722L4.426 22.5147L4.59174 22.2194L4.86796 22.318L4.53648 22.0224L4.61935 21.5303L4.48124 21.0708L4.70222 21.2349L4.75746 20.6111L4.95083 20.8081L5.19943 20.7752L4.75746 20.3815L4.03927 20.4143L3.90116 19.2984L4.23264 19.7579V19.3639L5.03371 19.0359L4.426 18.8389L4.0669 18.3795L3.73542 19.1014V17.526L3.34871 16.4758L3.26584 14.7035L2.27141 12.5045L2.1333 11.5527L2.43715 10.5025L2.21617 10.1085L4.86796 11.6184L7.18827 12.0122L7.68551 11.6184L7.51981 11.8152L7.96163 12.4716L8.37607 12.1108L8.51422 12.7999L8.67993 12.5045L8.51422 12.045L8.90093 11.9138L8.84563 12.2749L9.42578 13.522L8.73522 14.7035V13.7188L8.62463 14.1128L8.51422 13.8503L8.56934 14.3097L7.40922 16.6728L7.74081 16.7383L8.56934 16.2131L7.79593 16.6071L7.57493 16.4758L8.18263 15.2287L8.84563 14.8347L9.34293 13.7188L9.56393 13.9158L9.42578 13.1281L9.67434 13.3579L9.89534 14.3097L9.61905 14.3753L9.45334 14.7035L9.26007 14.4081L9.45334 15.3599L9.12193 14.9005L9.09419 15.0974L9.28763 15.3599L9.12193 15.6882L9.56393 15.3599L9.72963 15.7537L9.50863 17.3291L9.09419 17.0666L9.28763 16.6071V16.4101L8.95622 16.8041L8.79034 17.8543L8.67993 16.4758L8.07222 17.7885L7.74081 17.9855L7.68551 18.0512H7.90651L7.68551 18.3137L8.18263 17.7885L7.90651 18.3795L8.18263 18.0512L8.29322 18.5762L8.45893 17.92V18.1168L8.56934 17.92L8.90093 18.3137L9.45334 17.6573L9.61905 17.0008L9.97819 17.3291L10.3373 16.7383L10.061 15.4257L10.3096 15.4583L10.3373 15.2615L10.0058 14.9005L10.1439 14.047L10.4753 13.1609L10.8898 12.6686L10.3373 12.2749L10.3096 11.4543L10.061 11.3557L9.97819 11.8152L10.3373 12.4716L9.84005 12.0122L9.81249 11.3557H10.2268V10.962L9.72963 10.5025L9.61905 10.1085L9.34293 10.3055L9.26007 10.1414L9.17705 9.7148L9.42578 9.61642L9.61905 9.94443V9.74767L9.89534 9.94443L9.61905 9.15674L9.97819 9.35371L10.061 9.25533L9.89534 8.17227L9.61905 8.00816L9.28763 8.23779L9.09419 7.12187L8.90093 6.99062L9.12193 6.85937L9.09419 6.6624L19.1489 6.72813L28.5131 6.3999Z" fill="#6C6051"/>
</svg>
