<svg width="32" height="32" viewBox="0 0 32 32" fill="none" xmlns="http://www.w3.org/2000/svg">
<path d="M20.4247 9.64165L20.3596 13.8017L21.5634 12.99L22.6371 11.7048L22.9949 11.6033L23.548 11.8063L24.4265 10.8931L24.6216 10.3519L24.8493 10.5209L24.7843 10.8254L25.2073 10.9944L26.5412 11.1636L26.7038 10.9606L26.6062 10.7239L26.8015 10.6224L26.7038 10.4196L27.5823 10.2841L28.2003 9.70918L29.4368 10.5886L30.2176 10.4534L30.3151 10.7239L30.0549 10.8254L30.185 11.2651L30.3151 10.9944L30.3802 11.4003L30.7381 11.3326L30.4779 11.7723L30.8357 11.9753L30.9333 12.7193L30.3802 14.2752L27.387 11.8063L26.8991 13.3282L26.8015 14.1737L25.8579 15.5603L25.2723 16.0676H24.8493L24.1336 17.1838L23.3528 16.744L21.6285 20.1939L20.2295 19.7204L20.0342 19.0439L19.4162 18.8409L18.4401 21.4113L17.7569 22.1217L17.2038 23.5759L15.9348 25.0979L15.3817 26.1463L15.8374 26.6538L15.2843 27.0595L15.3493 27.4992L14.4059 28.2095L13.8852 27.8375L12.5838 28.5814L11.9333 28.2095L11.7053 28.9874L9.52564 29.5624L8.77729 28.7844L7.50852 29.8666L6.8578 29.7991L5.75161 29.1226L4.87319 27.6682L5.03586 27.1272L4.09237 26.8565L3.01872 25.8758L1.94509 23.7789L2.01016 23.4745L1.06665 22.0202L1.45706 21.2761L1.42453 19.8556L2.95365 19.7204L3.31152 18.5367L3.89715 18.3675L3.79954 17.0146L4.77559 15.2559L5.10093 15.0869L5.4588 15.3574L5.71907 16.3043L6.17456 15.6956L6.53244 15.8309L6.23963 14.6472L6.69521 14.4442V13.9032L7.08553 13.159H7.6711L7.9315 12.584L8.38697 12.0768H8.71233L9.00502 12.584L9.88348 12.1443L11.9657 10.3519L12.2911 9.64165L12.0634 9.2357L12.4862 8.42399V7.98447L12.7791 7.91675L12.9092 6.73305L13.7226 4.77136L13.5599 4.23022L13.7226 3.58762L13.3646 2.43769L14.2431 2.1333L14.1455 9.64165H20.4247Z" fill="#6C6051"/>
</svg>
