<svg width="32" height="32" viewBox="0 0 32 32" fill="none" xmlns="http://www.w3.org/2000/svg">
<path d="M29.0444 12.0824H29.2686L29.3434 12.3344L29.0444 12.4064L29.0817 13.0544L28.8201 12.9824L29.0817 13.2344L28.4463 14.0624L28.4837 14.3144L27.7736 15.1424L27.4372 14.7104L27.4745 14.2424L27.9604 13.6664L28.0726 12.9104L28.6332 12.6944L29.0444 12.0824ZM29.4929 11.3264L29.8666 11.3624L29.8293 11.7584H29.3434L29.4929 11.3264ZM12.0754 2.90241L11.7391 3.04641L12.6735 2.32641L12.7482 2.54241L12.0754 2.90241ZM12.8977 1.96641V2.14641L12.4118 2.03841L13.0099 1.82241L12.8977 1.96641ZM11.7017 1.89441L11.9259 2.21841L11.1037 4.01841L11.8138 3.83841L11.9259 3.44241L12.7482 4.05441L13.4957 4.12641L13.6079 4.45041L14.318 4.63041L14.8039 5.74641L19.4012 6.93441L20.672 7.58241L22.055 7.65441L23.6621 8.08641L24.1107 8.55441L24.0359 9.05841L25.0451 9.31041L25.4562 9.70641L25.4936 10.9304L25.1572 11.6864L26.0916 11.6144L25.9047 12.8384L26.5028 13.3424L26.2785 14.0624L25.3815 14.5664L24.4844 16.7264L24.7834 16.9424L25.0824 16.8704L25.83 16.1504L26.6523 14.9624L27.2503 14.7104L27.7736 15.2144L26.8765 18.2384L27.1755 19.0304L26.5028 19.6784L26.0916 20.7224L26.2785 22.1984L25.3815 25.0064L25.4562 26.5184L26.0916 28.0304L26.0542 29.8664H12.2249L12.0007 28.9664L10.5056 28.6064L10.1319 28.0664L9.7581 25.7624L10.1319 24.7904L9.60859 24.4304L9.42171 23.7824V22.1264L9.23483 20.9024L8.71156 20.3264L7.55289 20.0024L6.84274 19.3904L6.24471 18.2384L5.49718 17.5904L4.63752 17.3024L4.15163 16.6184L3.2546 16.4384L2.24543 15.5384L2.58182 14.4224L2.35756 13.4864L2.58182 13.1624V12.1184L3.10509 11.3264L2.73132 10.3904L2.1333 10.3544V9.52641L2.95558 8.23041L4.30114 7.51041H4.63752L4.97391 7.22241L5.04867 3.55041H5.34768L5.90832 2.86641L6.50635 3.44241L7.29125 3.37041L9.01057 2.86641L9.9076 2.21841L10.3561 2.39841L11.0289 1.89441L11.4027 1.71441L11.7017 1.89441ZM12.2249 2.03841L11.8886 1.89441L12.0007 1.75041L12.2249 1.89441V2.03841ZM11.1037 1.71441L10.9541 1.64241L11.1037 1.46241L11.2158 1.57041L11.1037 1.71441ZM13.4957 1.46241L13.1967 1.57041L13.4957 1.06641V1.31841V1.46241Z" fill="#6C6051"/>
</svg>
